<?xml version="1.0" encoding="utf-8" standalone="no"?>
<!DOCTYPE svg PUBLIC "-//W3C//DTD SVG 1.1//EN"
  "http://www.w3.org/Graphics/SVG/1.1/DTD/svg11.dtd">
<svg xmlns:xlink="http://www.w3.org/1999/xlink" width="1000.8pt" height="379.368pt" viewBox="0 0 1000.8 379.368" xmlns="http://www.w3.org/2000/svg" version="1.1">
 <metadata>
  <rdf:RDF xmlns:dc="http://purl.org/dc/elements/1.1/" xmlns:cc="http://creativecommons.org/ns#" xmlns:rdf="http://www.w3.org/1999/02/22-rdf-syntax-ns#">
   <cc:Work>
    <dc:type rdf:resource="http://purl.org/dc/dcmitype/StillImage"/>
    <dc:date>2025-11-11T05:08:49.309742</dc:date>
    <dc:format>image/svg+xml</dc:format>
    <dc:creator>
     <cc:Agent>
      <dc:title>Matplotlib v3.10.7, https://matplotlib.org/</dc:title>
     </cc:Agent>
    </dc:creator>
   </cc:Work>
  </rdf:RDF>
 </metadata>
 <defs>
  <style type="text/css">*{stroke-linejoin: round; stroke-linecap: butt}</style>
 </defs>
 <g id="figure_1">
  <g id="patch_1">
   <path d="M 0 379.368 
L 1000.8 379.368 
L 1000.8 0 
L 0 0 
z
" style="fill: #ffffff"/>
  </g>
  <g id="axes_1">
   <g id="patch_2">
    <path d="M 105.84 253.8 
L 894.96 253.8 
L 894.96 56.52 
L 105.84 56.52 
L 105.84 253.8 
z
" clip-path="url(#pf886ce0049)" style="fill: none; stroke: #000000; stroke-width: 2; stroke-linejoin: miter"/>
   </g>
   <g id="patch_3">
    <path d="M 326.136 100.035458 
L 323.10598 121.066007 
L 316.357425 117.169727 
L 286.765425 168.424574 
L 286.594575 168.325934 
L 316.186575 117.071087 
L 309.43802 113.174807 
z
" clip-path="url(#pf886ce0049)" style="fill: #ff0000; stroke: #ff0000; stroke-width: 2; stroke-linejoin: miter"/>
   </g>
   <g id="FillBetweenPolyCollection_1">
    <path d="M 105.84 273.528 
L 105.84 253.8 
L 237.36 253.8 
L 237.36 273.528 
L 237.36 273.528 
L 105.84 273.528 
z
" clip-path="url(#pf886ce0049)" style="fill: url(#hbd1f27314e); stroke: #000000"/>
   </g>
   <g id="patch_4">
    <path d="M 316.272 253.8 
C 316.272 239.949082 312.625256 226.339247 305.699797 214.344 
C 298.774338 202.348753 288.811247 192.385662 276.816 185.460203 
" clip-path="url(#pf886ce0049)" style="fill: none; stroke: #0000ff; stroke-width: 2; stroke-linejoin: miter"/>
   </g>
   <g id="line2d_1">
    <path d="M 237.36 253.8 
L 384.468849 -1 
" clip-path="url(#pf886ce0049)" style="fill: none; stroke: #ff0000; stroke-width: 3; stroke-linecap: square"/>
   </g>
   <g id="line2d_2">
    <path d="M 105.84 253.8 
L 237.36 253.8 
" clip-path="url(#pf886ce0049)" style="fill: none; stroke: #000000; stroke-width: 5; stroke-linecap: square"/>
   </g>
   <g id="line2d_3">
    <path d="M 237.36 253.8 
L 237.36 263.664 
" clip-path="url(#pf886ce0049)" style="fill: none; stroke-dasharray: 3.7,1.6; stroke-dashoffset: 0; stroke: #000000"/>
   </g>
   <g id="text_1">
    <!-- $60°$ -->
    <g style="fill: #0000ff" transform="translate(266.952 230.1264) scale(0.14 -0.14)">
     <defs>
      <path id="DejaVuSans-36" d="M 2113 2584 
Q 1688 2584 1439 2293 
Q 1191 2003 1191 1497 
Q 1191 994 1439 701 
Q 1688 409 2113 409 
Q 2538 409 2786 701 
Q 3034 994 3034 1497 
Q 3034 2003 2786 2293 
Q 2538 2584 2113 2584 
z
M 3366 4563 
L 3366 3988 
Q 3128 4100 2886 4159 
Q 2644 4219 2406 4219 
Q 1781 4219 1451 3797 
Q 1122 3375 1075 2522 
Q 1259 2794 1537 2939 
Q 1816 3084 2150 3084 
Q 2853 3084 3261 2657 
Q 3669 2231 3669 1497 
Q 3669 778 3244 343 
Q 2819 -91 2113 -91 
Q 1303 -91 875 529 
Q 447 1150 447 2328 
Q 447 3434 972 4092 
Q 1497 4750 2381 4750 
Q 2619 4750 2861 4703 
Q 3103 4656 3366 4563 
z
" transform="scale(0.015625)"/>
      <path id="DejaVuSans-30" d="M 2034 4250 
Q 1547 4250 1301 3770 
Q 1056 3291 1056 2328 
Q 1056 1369 1301 889 
Q 1547 409 2034 409 
Q 2525 409 2770 889 
Q 3016 1369 3016 2328 
Q 3016 3291 2770 3770 
Q 2525 4250 2034 4250 
z
M 2034 4750 
Q 2819 4750 3233 4129 
Q 3647 3509 3647 2328 
Q 3647 1150 3233 529 
Q 2819 -91 2034 -91 
Q 1250 -91 836 529 
Q 422 1150 422 2328 
Q 422 3509 836 4129 
Q 1250 4750 2034 4750 
z
" transform="scale(0.015625)"/>
      <path id="DejaVuSans-b0" d="M 1600 4347 
Q 1350 4347 1178 4173 
Q 1006 4000 1006 3750 
Q 1006 3503 1178 3333 
Q 1350 3163 1600 3163 
Q 1850 3163 2022 3333 
Q 2194 3503 2194 3750 
Q 2194 3997 2020 4172 
Q 1847 4347 1600 4347 
z
M 1600 4750 
Q 1800 4750 1984 4673 
Q 2169 4597 2303 4453 
Q 2447 4313 2519 4134 
Q 2591 3956 2591 3750 
Q 2591 3338 2302 3052 
Q 2013 2766 1594 2766 
Q 1172 2766 890 3047 
Q 609 3328 609 3750 
Q 609 4169 896 4459 
Q 1184 4750 1600 4750 
z
" transform="scale(0.015625)"/>
     </defs>
     <use xlink:href="#DejaVuSans-36" transform="translate(0 0.78125)"/>
     <use xlink:href="#DejaVuSans-30" transform="translate(63.623047 0.78125)"/>
     <use xlink:href="#DejaVuSans-b0" transform="translate(127.246094 0.78125)"/>
    </g>
   </g>
   <g id="text_2">
    <g id="patch_5">
     <path d="M 592.994 111.45 
L 723.454 111.45 
Q 726.754 111.45 726.754 108.15 
L 726.754 85.184406 
Q 726.754 81.884406 723.454 81.884406 
L 592.994 81.884406 
Q 589.694 81.884406 589.694 85.184406 
L 589.694 108.15 
Q 589.694 111.45 592.994 111.45 
z
" style="fill: #ffffe0; opacity: 0.8; stroke: #000000; stroke-linejoin: miter"/>
    </g>
    <!-- Pre-shock state -->
    <g transform="translate(615.892906 93.520344) scale(0.11 -0.11)">
     <defs>
      <path id="DejaVuSans-50" d="M 1259 4147 
L 1259 2394 
L 2053 2394 
Q 2494 2394 2734 2622 
Q 2975 2850 2975 3272 
Q 2975 3691 2734 3919 
Q 2494 4147 2053 4147 
L 1259 4147 
z
M 628 4666 
L 2053 4666 
Q 2838 4666 3239 4311 
Q 3641 3956 3641 3272 
Q 3641 2581 3239 2228 
Q 2838 1875 2053 1875 
L 1259 1875 
L 1259 0 
L 628 0 
L 628 4666 
z
" transform="scale(0.015625)"/>
      <path id="DejaVuSans-72" d="M 2631 2963 
Q 2534 3019 2420 3045 
Q 2306 3072 2169 3072 
Q 1681 3072 1420 2755 
Q 1159 2438 1159 1844 
L 1159 0 
L 581 0 
L 581 3500 
L 1159 3500 
L 1159 2956 
Q 1341 3275 1631 3429 
Q 1922 3584 2338 3584 
Q 2397 3584 2469 3576 
Q 2541 3569 2628 3553 
L 2631 2963 
z
" transform="scale(0.015625)"/>
      <path id="DejaVuSans-65" d="M 3597 1894 
L 3597 1613 
L 953 1613 
Q 991 1019 1311 708 
Q 1631 397 2203 397 
Q 2534 397 2845 478 
Q 3156 559 3463 722 
L 3463 178 
Q 3153 47 2828 -22 
Q 2503 -91 2169 -91 
Q 1331 -91 842 396 
Q 353 884 353 1716 
Q 353 2575 817 3079 
Q 1281 3584 2069 3584 
Q 2775 3584 3186 3129 
Q 3597 2675 3597 1894 
z
M 3022 2063 
Q 3016 2534 2758 2815 
Q 2500 3097 2075 3097 
Q 1594 3097 1305 2825 
Q 1016 2553 972 2059 
L 3022 2063 
z
" transform="scale(0.015625)"/>
      <path id="DejaVuSans-2d" d="M 313 2009 
L 1997 2009 
L 1997 1497 
L 313 1497 
L 313 2009 
z
" transform="scale(0.015625)"/>
      <path id="DejaVuSans-73" d="M 2834 3397 
L 2834 2853 
Q 2591 2978 2328 3040 
Q 2066 3103 1784 3103 
Q 1356 3103 1142 2972 
Q 928 2841 928 2578 
Q 928 2378 1081 2264 
Q 1234 2150 1697 2047 
L 1894 2003 
Q 2506 1872 2764 1633 
Q 3022 1394 3022 966 
Q 3022 478 2636 193 
Q 2250 -91 1575 -91 
Q 1294 -91 989 -36 
Q 684 19 347 128 
L 347 722 
Q 666 556 975 473 
Q 1284 391 1588 391 
Q 1994 391 2212 530 
Q 2431 669 2431 922 
Q 2431 1156 2273 1281 
Q 2116 1406 1581 1522 
L 1381 1569 
Q 847 1681 609 1914 
Q 372 2147 372 2553 
Q 372 3047 722 3315 
Q 1072 3584 1716 3584 
Q 2034 3584 2315 3537 
Q 2597 3491 2834 3397 
z
" transform="scale(0.015625)"/>
      <path id="DejaVuSans-68" d="M 3513 2113 
L 3513 0 
L 2938 0 
L 2938 2094 
Q 2938 2591 2744 2837 
Q 2550 3084 2163 3084 
Q 1697 3084 1428 2787 
Q 1159 2491 1159 1978 
L 1159 0 
L 581 0 
L 581 4863 
L 1159 4863 
L 1159 2956 
Q 1366 3272 1645 3428 
Q 1925 3584 2291 3584 
Q 2894 3584 3203 3211 
Q 3513 2838 3513 2113 
z
" transform="scale(0.015625)"/>
      <path id="DejaVuSans-6f" d="M 1959 3097 
Q 1497 3097 1228 2736 
Q 959 2375 959 1747 
Q 959 1119 1226 758 
Q 1494 397 1959 397 
Q 2419 397 2687 759 
Q 2956 1122 2956 1747 
Q 2956 2369 2687 2733 
Q 2419 3097 1959 3097 
z
M 1959 3584 
Q 2709 3584 3137 3096 
Q 3566 2609 3566 1747 
Q 3566 888 3137 398 
Q 2709 -91 1959 -91 
Q 1206 -91 779 398 
Q 353 888 353 1747 
Q 353 2609 779 3096 
Q 1206 3584 1959 3584 
z
" transform="scale(0.015625)"/>
      <path id="DejaVuSans-63" d="M 3122 3366 
L 3122 2828 
Q 2878 2963 2633 3030 
Q 2388 3097 2138 3097 
Q 1578 3097 1268 2742 
Q 959 2388 959 1747 
Q 959 1106 1268 751 
Q 1578 397 2138 397 
Q 2388 397 2633 464 
Q 2878 531 3122 666 
L 3122 134 
Q 2881 22 2623 -34 
Q 2366 -91 2075 -91 
Q 1284 -91 818 406 
Q 353 903 353 1747 
Q 353 2603 823 3093 
Q 1294 3584 2113 3584 
Q 2378 3584 2631 3529 
Q 2884 3475 3122 3366 
z
" transform="scale(0.015625)"/>
      <path id="DejaVuSans-6b" d="M 581 4863 
L 1159 4863 
L 1159 1991 
L 2875 3500 
L 3609 3500 
L 1753 1863 
L 3688 0 
L 2938 0 
L 1159 1709 
L 1159 0 
L 581 0 
L 581 4863 
z
" transform="scale(0.015625)"/>
      <path id="DejaVuSans-20" transform="scale(0.015625)"/>
      <path id="DejaVuSans-74" d="M 1172 4494 
L 1172 3500 
L 2356 3500 
L 2356 3053 
L 1172 3053 
L 1172 1153 
Q 1172 725 1289 603 
Q 1406 481 1766 481 
L 2356 481 
L 2356 0 
L 1766 0 
Q 1100 0 847 248 
Q 594 497 594 1153 
L 594 3053 
L 172 3053 
L 172 3500 
L 594 3500 
L 594 4494 
L 1172 4494 
z
" transform="scale(0.015625)"/>
      <path id="DejaVuSans-61" d="M 2194 1759 
Q 1497 1759 1228 1600 
Q 959 1441 959 1056 
Q 959 750 1161 570 
Q 1363 391 1709 391 
Q 2188 391 2477 730 
Q 2766 1069 2766 1631 
L 2766 1759 
L 2194 1759 
z
M 3341 1997 
L 3341 0 
L 2766 0 
L 2766 531 
Q 2569 213 2275 61 
Q 1981 -91 1556 -91 
Q 1019 -91 701 211 
Q 384 513 384 1019 
Q 384 1609 779 1909 
Q 1175 2209 1959 2209 
L 2766 2209 
L 2766 2266 
Q 2766 2663 2505 2880 
Q 2244 3097 1772 3097 
Q 1472 3097 1187 3025 
Q 903 2953 641 2809 
L 641 3341 
Q 956 3463 1253 3523 
Q 1550 3584 1831 3584 
Q 2591 3584 2966 3190 
Q 3341 2797 3341 1997 
z
" transform="scale(0.015625)"/>
     </defs>
     <use xlink:href="#DejaVuSans-50"/>
     <use xlink:href="#DejaVuSans-72" transform="translate(58.552734 0)"/>
     <use xlink:href="#DejaVuSans-65" transform="translate(97.416016 0)"/>
     <use xlink:href="#DejaVuSans-2d" transform="translate(158.939453 0)"/>
     <use xlink:href="#DejaVuSans-73" transform="translate(195.023438 0)"/>
     <use xlink:href="#DejaVuSans-68" transform="translate(247.123047 0)"/>
     <use xlink:href="#DejaVuSans-6f" transform="translate(310.501953 0)"/>
     <use xlink:href="#DejaVuSans-63" transform="translate(371.683594 0)"/>
     <use xlink:href="#DejaVuSans-6b" transform="translate(426.664062 0)"/>
     <use xlink:href="#DejaVuSans-20" transform="translate(484.574219 0)"/>
     <use xlink:href="#DejaVuSans-73" transform="translate(516.361328 0)"/>
     <use xlink:href="#DejaVuSans-74" transform="translate(568.460938 0)"/>
     <use xlink:href="#DejaVuSans-61" transform="translate(607.669922 0)"/>
     <use xlink:href="#DejaVuSans-74" transform="translate(668.949219 0)"/>
     <use xlink:href="#DejaVuSans-65" transform="translate(708.158203 0)"/>
    </g>
    <!-- $(\rho, u, v, p) = (1.4, 0, 0, 1)$ -->
    <g transform="translate(592.994 105.84) scale(0.11 -0.11)">
     <defs>
      <path id="DejaVuSans-28" d="M 1984 4856 
Q 1566 4138 1362 3434 
Q 1159 2731 1159 2009 
Q 1159 1288 1364 580 
Q 1569 -128 1984 -844 
L 1484 -844 
Q 1016 -109 783 600 
Q 550 1309 550 2009 
Q 550 2706 781 3412 
Q 1013 4119 1484 4856 
L 1984 4856 
z
" transform="scale(0.015625)"/>
      <path id="DejaVuSans-Oblique-3c1" d="M 1203 2875 
Q 1453 3194 1981 3475 
Q 2188 3584 2756 3584 
Q 3394 3584 3694 3078 
Q 3994 2572 3834 1747 
Q 3672 922 3175 415 
Q 2678 -91 2041 -91 
Q 1656 -91 1409 63 
Q 1163 213 1044 525 
L 681 -1331 
L 103 -1331 
L 697 1716 
Q 838 2438 1203 2875 
z
M 3238 1747 
Q 3359 2381 3169 2744 
Q 2978 3103 2522 3103 
Q 2066 3103 1734 2744 
Q 1403 2381 1281 1747 
Q 1156 1113 1347 750 
Q 1538 391 1994 391 
Q 2450 391 2781 750 
Q 3113 1113 3238 1747 
z
" transform="scale(0.015625)"/>
      <path id="DejaVuSans-2c" d="M 750 794 
L 1409 794 
L 1409 256 
L 897 -744 
L 494 -744 
L 750 256 
L 750 794 
z
" transform="scale(0.015625)"/>
      <path id="DejaVuSans-Oblique-75" d="M 428 1388 
L 838 3500 
L 1416 3500 
L 1006 1409 
Q 975 1256 961 1147 
Q 947 1038 947 966 
Q 947 700 1109 554 
Q 1272 409 1569 409 
Q 2031 409 2368 721 
Q 2706 1034 2809 1563 
L 3194 3500 
L 3769 3500 
L 3091 0 
L 2516 0 
L 2631 550 
Q 2388 244 2052 76 
Q 1716 -91 1338 -91 
Q 878 -91 622 161 
Q 366 413 366 863 
Q 366 956 381 1097 
Q 397 1238 428 1388 
z
" transform="scale(0.015625)"/>
      <path id="DejaVuSans-Oblique-76" d="M 459 3500 
L 1069 3500 
L 1581 525 
L 3256 3500 
L 3866 3500 
L 1875 0 
L 1100 0 
L 459 3500 
z
" transform="scale(0.015625)"/>
      <path id="DejaVuSans-Oblique-70" d="M 3175 2156 
Q 3175 2616 2975 2859 
Q 2775 3103 2400 3103 
Q 2144 3103 1911 2972 
Q 1678 2841 1497 2591 
Q 1319 2344 1212 1994 
Q 1106 1644 1106 1300 
Q 1106 863 1306 627 
Q 1506 391 1875 391 
Q 2147 391 2380 519 
Q 2613 647 2778 891 
Q 2956 1147 3065 1494 
Q 3175 1841 3175 2156 
z
M 1394 2969 
Q 1625 3272 1939 3428 
Q 2253 3584 2638 3584 
Q 3175 3584 3472 3232 
Q 3769 2881 3769 2247 
Q 3769 1728 3584 1258 
Q 3400 788 3053 416 
Q 2822 169 2531 39 
Q 2241 -91 1919 -91 
Q 1547 -91 1294 64 
Q 1041 219 916 525 
L 556 -1331 
L -19 -1331 
L 922 3500 
L 1497 3500 
L 1394 2969 
z
" transform="scale(0.015625)"/>
      <path id="DejaVuSans-29" d="M 513 4856 
L 1013 4856 
Q 1481 4119 1714 3412 
Q 1947 2706 1947 2009 
Q 1947 1309 1714 600 
Q 1481 -109 1013 -844 
L 513 -844 
Q 928 -128 1133 580 
Q 1338 1288 1338 2009 
Q 1338 2731 1133 3434 
Q 928 4138 513 4856 
z
" transform="scale(0.015625)"/>
      <path id="DejaVuSans-3d" d="M 678 2906 
L 4684 2906 
L 4684 2381 
L 678 2381 
L 678 2906 
z
M 678 1631 
L 4684 1631 
L 4684 1100 
L 678 1100 
L 678 1631 
z
" transform="scale(0.015625)"/>
      <path id="DejaVuSans-31" d="M 794 531 
L 1825 531 
L 1825 4091 
L 703 3866 
L 703 4441 
L 1819 4666 
L 2450 4666 
L 2450 531 
L 3481 531 
L 3481 0 
L 794 0 
L 794 531 
z
" transform="scale(0.015625)"/>
      <path id="DejaVuSans-2e" d="M 684 794 
L 1344 794 
L 1344 0 
L 684 0 
L 684 794 
z
" transform="scale(0.015625)"/>
      <path id="DejaVuSans-34" d="M 2419 4116 
L 825 1625 
L 2419 1625 
L 2419 4116 
z
M 2253 4666 
L 3047 4666 
L 3047 1625 
L 3713 1625 
L 3713 1100 
L 3047 1100 
L 3047 0 
L 2419 0 
L 2419 1100 
L 313 1100 
L 313 1709 
L 2253 4666 
z
" transform="scale(0.015625)"/>
     </defs>
     <use xlink:href="#DejaVuSans-28" transform="translate(0 0.125)"/>
     <use xlink:href="#DejaVuSans-Oblique-3c1" transform="translate(39.013672 0.125)"/>
     <use xlink:href="#DejaVuSans-2c" transform="translate(102.490234 0.125)"/>
     <use xlink:href="#DejaVuSans-Oblique-75" transform="translate(153.759766 0.125)"/>
     <use xlink:href="#DejaVuSans-2c" transform="translate(217.138672 0.125)"/>
     <use xlink:href="#DejaVuSans-Oblique-76" transform="translate(268.408203 0.125)"/>
     <use xlink:href="#DejaVuSans-2c" transform="translate(327.587891 0.125)"/>
     <use xlink:href="#DejaVuSans-Oblique-70" transform="translate(378.857422 0.125)"/>
     <use xlink:href="#DejaVuSans-29" transform="translate(442.333984 0.125)"/>
     <use xlink:href="#DejaVuSans-3d" transform="translate(500.830078 0.125)"/>
     <use xlink:href="#DejaVuSans-28" transform="translate(604.101562 0.125)"/>
     <use xlink:href="#DejaVuSans-31" transform="translate(643.115234 0.125)"/>
     <use xlink:href="#DejaVuSans-2e" transform="translate(706.738281 0.125)"/>
     <use xlink:href="#DejaVuSans-34" transform="translate(738.525391 0.125)"/>
     <use xlink:href="#DejaVuSans-2c" transform="translate(802.148438 0.125)"/>
     <use xlink:href="#DejaVuSans-30" transform="translate(853.417969 0.125)"/>
     <use xlink:href="#DejaVuSans-2c" transform="translate(917.041016 0.125)"/>
     <use xlink:href="#DejaVuSans-30" transform="translate(968.310547 0.125)"/>
     <use xlink:href="#DejaVuSans-2c" transform="translate(1031.933594 0.125)"/>
     <use xlink:href="#DejaVuSans-31" transform="translate(1083.203125 0.125)"/>
     <use xlink:href="#DejaVuSans-29" transform="translate(1146.826172 0.125)"/>
    </g>
   </g>
   <g id="text_3">
    <g id="patch_6">
     <path d="M 98.237 111.427656 
L 271.267 111.427656 
Q 274.567 111.427656 274.567 108.127656 
L 274.567 72.822125 
Q 274.567 69.522125 271.267 69.522125 
L 98.237 69.522125 
Q 94.937 69.522125 94.937 72.822125 
L 94.937 108.127656 
Q 94.937 111.427656 98.237 111.427656 
z
" style="fill: #add8e6; opacity: 0.8; stroke: #000000; stroke-linejoin: miter"/>
    </g>
    <!-- Post-shock state -->
    <g transform="translate(139.658875 81.180406) scale(0.11 -0.11)">
     <use xlink:href="#DejaVuSans-50"/>
     <use xlink:href="#DejaVuSans-6f" transform="translate(56.677734 0)"/>
     <use xlink:href="#DejaVuSans-73" transform="translate(117.859375 0)"/>
     <use xlink:href="#DejaVuSans-74" transform="translate(169.958984 0)"/>
     <use xlink:href="#DejaVuSans-2d" transform="translate(209.167969 0)"/>
     <use xlink:href="#DejaVuSans-73" transform="translate(245.251953 0)"/>
     <use xlink:href="#DejaVuSans-68" transform="translate(297.351562 0)"/>
     <use xlink:href="#DejaVuSans-6f" transform="translate(360.730469 0)"/>
     <use xlink:href="#DejaVuSans-63" transform="translate(421.912109 0)"/>
     <use xlink:href="#DejaVuSans-6b" transform="translate(476.892578 0)"/>
     <use xlink:href="#DejaVuSans-20" transform="translate(534.802734 0)"/>
     <use xlink:href="#DejaVuSans-73" transform="translate(566.589844 0)"/>
     <use xlink:href="#DejaVuSans-74" transform="translate(618.689453 0)"/>
     <use xlink:href="#DejaVuSans-61" transform="translate(657.898438 0)"/>
     <use xlink:href="#DejaVuSans-74" transform="translate(719.177734 0)"/>
     <use xlink:href="#DejaVuSans-65" transform="translate(758.386719 0)"/>
    </g>
    <!-- $(\rho, p) = (8, 116.5)$ -->
    <g transform="translate(137.507 93.500062) scale(0.11 -0.11)">
     <defs>
      <path id="DejaVuSans-38" d="M 2034 2216 
Q 1584 2216 1326 1975 
Q 1069 1734 1069 1313 
Q 1069 891 1326 650 
Q 1584 409 2034 409 
Q 2484 409 2743 651 
Q 3003 894 3003 1313 
Q 3003 1734 2745 1975 
Q 2488 2216 2034 2216 
z
M 1403 2484 
Q 997 2584 770 2862 
Q 544 3141 544 3541 
Q 544 4100 942 4425 
Q 1341 4750 2034 4750 
Q 2731 4750 3128 4425 
Q 3525 4100 3525 3541 
Q 3525 3141 3298 2862 
Q 3072 2584 2669 2484 
Q 3125 2378 3379 2068 
Q 3634 1759 3634 1313 
Q 3634 634 3220 271 
Q 2806 -91 2034 -91 
Q 1263 -91 848 271 
Q 434 634 434 1313 
Q 434 1759 690 2068 
Q 947 2378 1403 2484 
z
M 1172 3481 
Q 1172 3119 1398 2916 
Q 1625 2713 2034 2713 
Q 2441 2713 2670 2916 
Q 2900 3119 2900 3481 
Q 2900 3844 2670 4047 
Q 2441 4250 2034 4250 
Q 1625 4250 1398 4047 
Q 1172 3844 1172 3481 
z
" transform="scale(0.015625)"/>
      <path id="DejaVuSans-35" d="M 691 4666 
L 3169 4666 
L 3169 4134 
L 1269 4134 
L 1269 2991 
Q 1406 3038 1543 3061 
Q 1681 3084 1819 3084 
Q 2600 3084 3056 2656 
Q 3513 2228 3513 1497 
Q 3513 744 3044 326 
Q 2575 -91 1722 -91 
Q 1428 -91 1123 -41 
Q 819 9 494 109 
L 494 744 
Q 775 591 1075 516 
Q 1375 441 1709 441 
Q 2250 441 2565 725 
Q 2881 1009 2881 1497 
Q 2881 1984 2565 2268 
Q 2250 2553 1709 2553 
Q 1456 2553 1204 2497 
Q 953 2441 691 2322 
L 691 4666 
z
" transform="scale(0.015625)"/>
     </defs>
     <use xlink:href="#DejaVuSans-28" transform="translate(0 0.125)"/>
     <use xlink:href="#DejaVuSans-Oblique-3c1" transform="translate(39.013672 0.125)"/>
     <use xlink:href="#DejaVuSans-2c" transform="translate(102.490234 0.125)"/>
     <use xlink:href="#DejaVuSans-Oblique-70" transform="translate(153.759766 0.125)"/>
     <use xlink:href="#DejaVuSans-29" transform="translate(217.236328 0.125)"/>
     <use xlink:href="#DejaVuSans-3d" transform="translate(275.732422 0.125)"/>
     <use xlink:href="#DejaVuSans-28" transform="translate(379.003906 0.125)"/>
     <use xlink:href="#DejaVuSans-38" transform="translate(418.017578 0.125)"/>
     <use xlink:href="#DejaVuSans-2c" transform="translate(481.640625 0.125)"/>
     <use xlink:href="#DejaVuSans-31" transform="translate(532.910156 0.125)"/>
     <use xlink:href="#DejaVuSans-31" transform="translate(596.533203 0.125)"/>
     <use xlink:href="#DejaVuSans-36" transform="translate(660.15625 0.125)"/>
     <use xlink:href="#DejaVuSans-2e" transform="translate(723.779297 0.125)"/>
     <use xlink:href="#DejaVuSans-35" transform="translate(755.566406 0.125)"/>
     <use xlink:href="#DejaVuSans-29" transform="translate(819.189453 0.125)"/>
    </g>
    <!-- $\mathbf{v} = (8.25\sin 60°, -8.25\cos 60°)$ -->
    <g transform="translate(98.237 105.84) scale(0.11 -0.11)">
     <defs>
      <path id="DejaVuSans-Bold-76" d="M 97 3500 
L 1216 3500 
L 2088 1081 
L 2956 3500 
L 4078 3500 
L 2700 0 
L 1472 0 
L 97 3500 
z
" transform="scale(0.015625)"/>
      <path id="DejaVuSans-32" d="M 1228 531 
L 3431 531 
L 3431 0 
L 469 0 
L 469 531 
Q 828 903 1448 1529 
Q 2069 2156 2228 2338 
Q 2531 2678 2651 2914 
Q 2772 3150 2772 3378 
Q 2772 3750 2511 3984 
Q 2250 4219 1831 4219 
Q 1534 4219 1204 4116 
Q 875 4013 500 3803 
L 500 4441 
Q 881 4594 1212 4672 
Q 1544 4750 1819 4750 
Q 2544 4750 2975 4387 
Q 3406 4025 3406 3419 
Q 3406 3131 3298 2873 
Q 3191 2616 2906 2266 
Q 2828 2175 2409 1742 
Q 1991 1309 1228 531 
z
" transform="scale(0.015625)"/>
      <path id="DejaVuSans-69" d="M 603 3500 
L 1178 3500 
L 1178 0 
L 603 0 
L 603 3500 
z
M 603 4863 
L 1178 4863 
L 1178 4134 
L 603 4134 
L 603 4863 
z
" transform="scale(0.015625)"/>
      <path id="DejaVuSans-6e" d="M 3513 2113 
L 3513 0 
L 2938 0 
L 2938 2094 
Q 2938 2591 2744 2837 
Q 2550 3084 2163 3084 
Q 1697 3084 1428 2787 
Q 1159 2491 1159 1978 
L 1159 0 
L 581 0 
L 581 3500 
L 1159 3500 
L 1159 2956 
Q 1366 3272 1645 3428 
Q 1925 3584 2291 3584 
Q 2894 3584 3203 3211 
Q 3513 2838 3513 2113 
z
" transform="scale(0.015625)"/>
      <path id="DejaVuSans-2212" d="M 678 2272 
L 4684 2272 
L 4684 1741 
L 678 1741 
L 678 2272 
z
" transform="scale(0.015625)"/>
     </defs>
     <use xlink:href="#DejaVuSans-Bold-76" transform="translate(0 0.015625)"/>
     <use xlink:href="#DejaVuSans-3d" transform="translate(84.667969 0.015625)"/>
     <use xlink:href="#DejaVuSans-28" transform="translate(187.939453 0.015625)"/>
     <use xlink:href="#DejaVuSans-38" transform="translate(226.953125 0.015625)"/>
     <use xlink:href="#DejaVuSans-2e" transform="translate(290.576172 0.015625)"/>
     <use xlink:href="#DejaVuSans-32" transform="translate(316.863281 0.015625)"/>
     <use xlink:href="#DejaVuSans-35" transform="translate(380.486328 0.015625)"/>
     <use xlink:href="#DejaVuSans-73" transform="translate(444.109375 0.015625)"/>
     <use xlink:href="#DejaVuSans-69" transform="translate(496.208984 0.015625)"/>
     <use xlink:href="#DejaVuSans-6e" transform="translate(523.992188 0.015625)"/>
     <use xlink:href="#DejaVuSans-36" transform="translate(603.60677 0.015625)"/>
     <use xlink:href="#DejaVuSans-30" transform="translate(667.229817 0.015625)"/>
     <use xlink:href="#DejaVuSans-b0" transform="translate(730.852864 0.015625)"/>
     <use xlink:href="#DejaVuSans-2c" transform="translate(780.852864 0.015625)"/>
     <use xlink:href="#DejaVuSans-2212" transform="translate(851.604817 0.015625)"/>
     <use xlink:href="#DejaVuSans-38" transform="translate(954.876301 0.015625)"/>
     <use xlink:href="#DejaVuSans-2e" transform="translate(1018.499348 0.015625)"/>
     <use xlink:href="#DejaVuSans-32" transform="translate(1044.786458 0.015625)"/>
     <use xlink:href="#DejaVuSans-35" transform="translate(1108.409504 0.015625)"/>
     <use xlink:href="#DejaVuSans-63" transform="translate(1172.032551 0.015625)"/>
     <use xlink:href="#DejaVuSans-6f" transform="translate(1227.01302 0.015625)"/>
     <use xlink:href="#DejaVuSans-73" transform="translate(1288.194661 0.015625)"/>
     <use xlink:href="#DejaVuSans-36" transform="translate(1356.529946 0.015625)"/>
     <use xlink:href="#DejaVuSans-30" transform="translate(1420.152993 0.015625)"/>
     <use xlink:href="#DejaVuSans-b0" transform="translate(1483.77604 0.015625)"/>
     <use xlink:href="#DejaVuSans-29" transform="translate(1533.77604 0.015625)"/>
    </g>
   </g>
   <g id="text_4">
    <g id="patch_7">
     <path d="M 375.456 191.355594 
L 426.428188 191.355594 
Q 430.328188 191.355594 430.328188 187.455594 
L 430.328188 174.874031 
Q 430.328188 170.974031 426.428188 170.974031 
L 375.456 170.974031 
Q 371.556 170.974031 371.556 174.874031 
L 371.556 187.455594 
Q 371.556 191.355594 375.456 191.355594 
z
" style="fill: #ffffff; stroke: #ff0000; stroke-width: 2; stroke-linejoin: miter"/>
    </g>
    <!-- M = 10 -->
    <g style="fill: #ff0000" transform="translate(375.456 184.752) scale(0.13 -0.13)">
     <defs>
      <path id="DejaVuSans-Bold-4d" d="M 588 4666 
L 2119 4666 
L 3181 2169 
L 4250 4666 
L 5778 4666 
L 5778 0 
L 4641 0 
L 4641 3413 
L 3566 897 
L 2803 897 
L 1728 3413 
L 1728 0 
L 588 0 
L 588 4666 
z
" transform="scale(0.015625)"/>
      <path id="DejaVuSans-Bold-20" transform="scale(0.015625)"/>
      <path id="DejaVuSans-Bold-3d" d="M 678 3084 
L 4684 3084 
L 4684 2350 
L 678 2350 
L 678 3084 
z
M 678 1663 
L 4684 1663 
L 4684 922 
L 678 922 
L 678 1663 
z
" transform="scale(0.015625)"/>
      <path id="DejaVuSans-Bold-31" d="M 750 831 
L 1813 831 
L 1813 3847 
L 722 3622 
L 722 4441 
L 1806 4666 
L 2950 4666 
L 2950 831 
L 4013 831 
L 4013 0 
L 750 0 
L 750 831 
z
" transform="scale(0.015625)"/>
      <path id="DejaVuSans-Bold-30" d="M 2944 2338 
Q 2944 3213 2780 3570 
Q 2616 3928 2228 3928 
Q 1841 3928 1675 3570 
Q 1509 3213 1509 2338 
Q 1509 1453 1675 1090 
Q 1841 728 2228 728 
Q 2613 728 2778 1090 
Q 2944 1453 2944 2338 
z
M 4147 2328 
Q 4147 1169 3647 539 
Q 3147 -91 2228 -91 
Q 1306 -91 806 539 
Q 306 1169 306 2328 
Q 306 3491 806 4120 
Q 1306 4750 2228 4750 
Q 3147 4750 3647 4120 
Q 4147 3491 4147 2328 
z
" transform="scale(0.015625)"/>
     </defs>
     <use xlink:href="#DejaVuSans-Bold-4d"/>
     <use xlink:href="#DejaVuSans-Bold-20" transform="translate(99.511719 0)"/>
     <use xlink:href="#DejaVuSans-Bold-3d" transform="translate(134.326172 0)"/>
     <use xlink:href="#DejaVuSans-Bold-20" transform="translate(218.115234 0)"/>
     <use xlink:href="#DejaVuSans-Bold-31" transform="translate(252.929688 0)"/>
     <use xlink:href="#DejaVuSans-Bold-30" transform="translate(322.509766 0)"/>
    </g>
   </g>
   <g id="patch_8">
    <path d="M 109.51887 293.256 
Q 500.399536 293.256 891.280203 293.256 
" style="fill: none; stroke: #000000; stroke-width: 1.5; stroke-linecap: round"/>
    <path d="M 113.51887 295.256 
L 109.51887 293.256 
L 113.51887 291.256 
" style="fill: none; stroke: #000000; stroke-width: 1.5; stroke-linecap: round"/>
    <path d="M 887.280203 291.256 
L 891.280203 293.256 
L 887.280203 295.256 
" style="fill: none; stroke: #000000; stroke-width: 1.5; stroke-linecap: round"/>
   </g>
   <g id="text_5">
    <!-- L = 4.0 -->
    <g transform="translate(480.483984 307.0656) scale(0.11 -0.11)">
     <defs>
      <path id="DejaVuSans-4c" d="M 628 4666 
L 1259 4666 
L 1259 531 
L 3531 531 
L 3531 0 
L 628 0 
L 628 4666 
z
" transform="scale(0.015625)"/>
     </defs>
     <use xlink:href="#DejaVuSans-4c"/>
     <use xlink:href="#DejaVuSans-20" transform="translate(55.712891 0)"/>
     <use xlink:href="#DejaVuSans-3d" transform="translate(87.5 0)"/>
     <use xlink:href="#DejaVuSans-20" transform="translate(171.289062 0)"/>
     <use xlink:href="#DejaVuSans-34" transform="translate(203.076172 0)"/>
     <use xlink:href="#DejaVuSans-2e" transform="translate(266.699219 0)"/>
     <use xlink:href="#DejaVuSans-30" transform="translate(298.486328 0)"/>
    </g>
   </g>
   <g id="patch_9">
    <path d="M 86.112 250.12113 
Q 86.112 155.158783 86.112 60.196435 
" style="fill: none; stroke: #000000; stroke-width: 1.5; stroke-linecap: round"/>
    <path d="M 88.112 246.12113 
L 86.112 250.12113 
L 84.112 246.12113 
" style="fill: none; stroke: #000000; stroke-width: 1.5; stroke-linecap: round"/>
    <path d="M 84.112 64.196435 
L 86.112 60.196435 
L 88.112 64.196435 
" style="fill: none; stroke: #000000; stroke-width: 1.5; stroke-linecap: round"/>
   </g>
   <g id="text_6">
    <!-- H = 1.0 -->
    <g transform="translate(69.419313 176.147656) rotate(-90) scale(0.11 -0.11)">
     <defs>
      <path id="DejaVuSans-48" d="M 628 4666 
L 1259 4666 
L 1259 2753 
L 3553 2753 
L 3553 4666 
L 4184 4666 
L 4184 0 
L 3553 0 
L 3553 2222 
L 1259 2222 
L 1259 0 
L 628 0 
L 628 4666 
z
" transform="scale(0.015625)"/>
     </defs>
     <use xlink:href="#DejaVuSans-48"/>
     <use xlink:href="#DejaVuSans-20" transform="translate(75.195312 0)"/>
     <use xlink:href="#DejaVuSans-3d" transform="translate(106.982422 0)"/>
     <use xlink:href="#DejaVuSans-20" transform="translate(190.771484 0)"/>
     <use xlink:href="#DejaVuSans-31" transform="translate(222.558594 0)"/>
     <use xlink:href="#DejaVuSans-2e" transform="translate(286.181641 0)"/>
     <use xlink:href="#DejaVuSans-30" transform="translate(317.96875 0)"/>
    </g>
   </g>
   <g id="text_7">
    <!-- $x = 2/3$ -->
    <g transform="translate(220.21 283.392) scale(0.1 -0.1)">
     <defs>
      <path id="DejaVuSans-Oblique-78" d="M 3841 3500 
L 2234 1784 
L 3219 0 
L 2559 0 
L 1819 1388 
L 531 0 
L -166 0 
L 1556 1844 
L 641 3500 
L 1300 3500 
L 1972 2234 
L 3144 3500 
L 3841 3500 
z
" transform="scale(0.015625)"/>
      <path id="DejaVuSans-2f" d="M 1625 4666 
L 2156 4666 
L 531 -594 
L 0 -594 
L 1625 4666 
z
" transform="scale(0.015625)"/>
      <path id="DejaVuSans-33" d="M 2597 2516 
Q 3050 2419 3304 2112 
Q 3559 1806 3559 1356 
Q 3559 666 3084 287 
Q 2609 -91 1734 -91 
Q 1441 -91 1130 -33 
Q 819 25 488 141 
L 488 750 
Q 750 597 1062 519 
Q 1375 441 1716 441 
Q 2309 441 2620 675 
Q 2931 909 2931 1356 
Q 2931 1769 2642 2001 
Q 2353 2234 1838 2234 
L 1294 2234 
L 1294 2753 
L 1863 2753 
Q 2328 2753 2575 2939 
Q 2822 3125 2822 3475 
Q 2822 3834 2567 4026 
Q 2313 4219 1838 4219 
Q 1578 4219 1281 4162 
Q 984 4106 628 3988 
L 628 4550 
Q 988 4650 1302 4700 
Q 1616 4750 1894 4750 
Q 2613 4750 3031 4423 
Q 3450 4097 3450 3541 
Q 3450 3153 3228 2886 
Q 3006 2619 2597 2516 
z
" transform="scale(0.015625)"/>
     </defs>
     <use xlink:href="#DejaVuSans-Oblique-78" transform="translate(0 0.78125)"/>
     <use xlink:href="#DejaVuSans-3d" transform="translate(78.662109 0.78125)"/>
     <use xlink:href="#DejaVuSans-32" transform="translate(181.933594 0.78125)"/>
     <use xlink:href="#DejaVuSans-2f" transform="translate(245.556641 0.78125)"/>
     <use xlink:href="#DejaVuSans-33" transform="translate(279.248047 0.78125)"/>
    </g>
   </g>
   <g id="text_8">
    <g id="patch_10">
     <path d="M 452.888281 37.926087 
L 547.911719 37.926087 
Q 550.911719 37.926087 550.911719 34.926087 
L 550.911719 25.247962 
Q 550.911719 22.247962 547.911719 22.247962 
L 452.888281 22.247962 
Q 449.888281 22.247962 449.888281 25.247962 
L 449.888281 34.926087 
Q 449.888281 37.926087 452.888281 37.926087 
z
" style="fill: #90ee90; opacity: 0.6; stroke: #000000; stroke-linejoin: miter"/>
    </g>
    <!-- Inflow (post-shock) -->
    <g transform="translate(452.888281 32.8464) scale(0.1 -0.1)">
     <defs>
      <path id="DejaVuSans-Oblique-49" d="M 1081 4666 
L 1716 4666 
L 806 0 
L 172 0 
L 1081 4666 
z
" transform="scale(0.015625)"/>
      <path id="DejaVuSans-Oblique-6e" d="M 3566 2113 
L 3156 0 
L 2578 0 
L 2988 2091 
Q 3016 2238 3031 2350 
Q 3047 2463 3047 2528 
Q 3047 2791 2881 2937 
Q 2716 3084 2419 3084 
Q 1956 3084 1622 2776 
Q 1288 2469 1184 1941 
L 800 0 
L 225 0 
L 903 3500 
L 1478 3500 
L 1363 2950 
Q 1603 3253 1940 3418 
Q 2278 3584 2650 3584 
Q 3113 3584 3367 3334 
Q 3622 3084 3622 2631 
Q 3622 2519 3608 2391 
Q 3594 2263 3566 2113 
z
" transform="scale(0.015625)"/>
      <path id="DejaVuSans-Oblique-66" d="M 3059 4863 
L 2969 4384 
L 2419 4384 
Q 2106 4384 1964 4261 
Q 1822 4138 1753 3809 
L 1691 3500 
L 2638 3500 
L 2553 3053 
L 1606 3053 
L 1013 0 
L 434 0 
L 1031 3053 
L 481 3053 
L 563 3500 
L 1113 3500 
L 1159 3744 
Q 1278 4363 1576 4613 
Q 1875 4863 2516 4863 
L 3059 4863 
z
" transform="scale(0.015625)"/>
      <path id="DejaVuSans-Oblique-6c" d="M 1172 4863 
L 1747 4863 
L 800 0 
L 225 0 
L 1172 4863 
z
" transform="scale(0.015625)"/>
      <path id="DejaVuSans-Oblique-6f" d="M 1625 -91 
Q 1009 -91 651 289 
Q 294 669 294 1325 
Q 294 1706 417 2101 
Q 541 2497 738 2766 
Q 1047 3184 1428 3384 
Q 1809 3584 2291 3584 
Q 2888 3584 3255 3212 
Q 3622 2841 3622 2241 
Q 3622 1825 3500 1412 
Q 3378 1000 3181 728 
Q 2875 309 2494 109 
Q 2113 -91 1625 -91 
z
M 891 1344 
Q 891 869 1089 633 
Q 1288 397 1691 397 
Q 2269 397 2648 901 
Q 3028 1406 3028 2181 
Q 3028 2634 2825 2865 
Q 2622 3097 2228 3097 
Q 1903 3097 1650 2945 
Q 1397 2794 1197 2484 
Q 1050 2253 970 1956 
Q 891 1659 891 1344 
z
" transform="scale(0.015625)"/>
      <path id="DejaVuSans-Oblique-77" d="M 544 3500 
L 1113 3500 
L 1259 684 
L 2566 3500 
L 3231 3500 
L 3425 684 
L 4666 3500 
L 5241 3500 
L 3641 0 
L 2969 0 
L 2797 2900 
L 1459 0 
L 781 0 
L 544 3500 
z
" transform="scale(0.015625)"/>
      <path id="DejaVuSans-Oblique-20" transform="scale(0.015625)"/>
      <path id="DejaVuSans-Oblique-28" d="M 2731 4856 
Q 1903 3822 1495 2892 
Q 1088 1963 1088 1100 
Q 1088 606 1206 120 
Q 1325 -366 1563 -844 
L 1063 -844 
Q 775 -306 634 201 
Q 494 709 494 1197 
Q 494 2125 923 3036 
Q 1353 3947 2222 4856 
L 2731 4856 
z
" transform="scale(0.015625)"/>
      <path id="DejaVuSans-Oblique-73" d="M 3200 3397 
L 3091 2853 
Q 2863 2978 2609 3040 
Q 2356 3103 2088 3103 
Q 1634 3103 1373 2948 
Q 1113 2794 1113 2528 
Q 1113 2219 1719 2053 
Q 1766 2041 1788 2034 
L 1972 1978 
Q 2547 1819 2739 1644 
Q 2931 1469 2931 1166 
Q 2931 609 2489 259 
Q 2047 -91 1331 -91 
Q 1053 -91 747 -37 
Q 441 16 72 128 
L 184 722 
Q 500 559 806 475 
Q 1113 391 1394 391 
Q 1816 391 2080 572 
Q 2344 753 2344 1031 
Q 2344 1331 1650 1516 
L 1591 1531 
L 1394 1581 
Q 956 1697 753 1886 
Q 550 2075 550 2369 
Q 550 2928 970 3256 
Q 1391 3584 2113 3584 
Q 2397 3584 2667 3537 
Q 2938 3491 3200 3397 
z
" transform="scale(0.015625)"/>
      <path id="DejaVuSans-Oblique-74" d="M 2706 3500 
L 2619 3053 
L 1472 3053 
L 1100 1153 
Q 1081 1047 1072 975 
Q 1063 903 1063 863 
Q 1063 663 1183 572 
Q 1303 481 1569 481 
L 2150 481 
L 2053 0 
L 1503 0 
Q 991 0 739 200 
Q 488 400 488 806 
Q 488 878 497 964 
Q 506 1050 525 1153 
L 897 3053 
L 409 3053 
L 500 3500 
L 978 3500 
L 1172 4494 
L 1747 4494 
L 1556 3500 
L 2706 3500 
z
" transform="scale(0.015625)"/>
      <path id="DejaVuSans-Oblique-2d" d="M 391 2009 
L 2075 2009 
L 1978 1497 
L 288 1497 
L 391 2009 
z
" transform="scale(0.015625)"/>
      <path id="DejaVuSans-Oblique-68" d="M 3566 2113 
L 3156 0 
L 2578 0 
L 2988 2091 
Q 3016 2238 3031 2350 
Q 3047 2463 3047 2528 
Q 3047 2791 2881 2937 
Q 2716 3084 2419 3084 
Q 1956 3084 1617 2771 
Q 1278 2459 1178 1941 
L 800 0 
L 225 0 
L 1172 4863 
L 1747 4863 
L 1375 2950 
Q 1594 3244 1934 3414 
Q 2275 3584 2650 3584 
Q 3113 3584 3367 3334 
Q 3622 3084 3622 2631 
Q 3622 2519 3608 2391 
Q 3594 2263 3566 2113 
z
" transform="scale(0.015625)"/>
      <path id="DejaVuSans-Oblique-63" d="M 3431 3366 
L 3316 2797 
Q 3109 2947 2876 3022 
Q 2644 3097 2394 3097 
Q 2119 3097 1870 3000 
Q 1622 2903 1453 2725 
Q 1184 2453 1037 2087 
Q 891 1722 891 1331 
Q 891 859 1127 628 
Q 1363 397 1844 397 
Q 2081 397 2348 469 
Q 2616 541 2906 684 
L 2797 116 
Q 2547 13 2283 -39 
Q 2019 -91 1741 -91 
Q 1044 -91 669 257 
Q 294 606 294 1253 
Q 294 1797 489 2255 
Q 684 2713 1069 3078 
Q 1331 3328 1684 3456 
Q 2038 3584 2456 3584 
Q 2700 3584 2940 3529 
Q 3181 3475 3431 3366 
z
" transform="scale(0.015625)"/>
      <path id="DejaVuSans-Oblique-6b" d="M 1172 4863 
L 1747 4863 
L 1197 2028 
L 3169 3500 
L 3916 3500 
L 1716 1825 
L 3322 0 
L 2625 0 
L 1131 1709 
L 800 0 
L 225 0 
L 1172 4863 
z
" transform="scale(0.015625)"/>
      <path id="DejaVuSans-Oblique-29" d="M -397 -844 
Q 434 191 840 1120 
Q 1247 2050 1247 2913 
Q 1247 3406 1130 3892 
Q 1013 4378 775 4856 
L 1275 4856 
Q 1563 4316 1703 3812 
Q 1844 3309 1844 2822 
Q 1844 1891 1411 973 
Q 978 56 116 -844 
L -397 -844 
z
" transform="scale(0.015625)"/>
     </defs>
     <use xlink:href="#DejaVuSans-Oblique-49"/>
     <use xlink:href="#DejaVuSans-Oblique-6e" transform="translate(29.492188 0)"/>
     <use xlink:href="#DejaVuSans-Oblique-66" transform="translate(92.871094 0)"/>
     <use xlink:href="#DejaVuSans-Oblique-6c" transform="translate(128.076172 0)"/>
     <use xlink:href="#DejaVuSans-Oblique-6f" transform="translate(155.859375 0)"/>
     <use xlink:href="#DejaVuSans-Oblique-77" transform="translate(217.041016 0)"/>
     <use xlink:href="#DejaVuSans-Oblique-20" transform="translate(298.828125 0)"/>
     <use xlink:href="#DejaVuSans-Oblique-28" transform="translate(330.615234 0)"/>
     <use xlink:href="#DejaVuSans-Oblique-70" transform="translate(369.628906 0)"/>
     <use xlink:href="#DejaVuSans-Oblique-6f" transform="translate(433.105469 0)"/>
     <use xlink:href="#DejaVuSans-Oblique-73" transform="translate(494.287109 0)"/>
     <use xlink:href="#DejaVuSans-Oblique-74" transform="translate(546.386719 0)"/>
     <use xlink:href="#DejaVuSans-Oblique-2d" transform="translate(585.595703 0)"/>
     <use xlink:href="#DejaVuSans-Oblique-73" transform="translate(621.679688 0)"/>
     <use xlink:href="#DejaVuSans-Oblique-68" transform="translate(673.779297 0)"/>
     <use xlink:href="#DejaVuSans-Oblique-6f" transform="translate(737.158203 0)"/>
     <use xlink:href="#DejaVuSans-Oblique-63" transform="translate(798.339844 0)"/>
     <use xlink:href="#DejaVuSans-Oblique-6b" transform="translate(853.320312 0)"/>
     <use xlink:href="#DejaVuSans-Oblique-29" transform="translate(911.230469 0)"/>
    </g>
   </g>
   <g id="text_9">
    <g id="patch_11">
     <path d="M 921.552 135.7975 
L 921.552 174.5225 
Q 921.552 177.5225 924.552 177.5225 
L 934.230125 177.5225 
Q 937.230125 177.5225 937.230125 174.5225 
L 937.230125 135.7975 
Q 937.230125 132.7975 934.230125 132.7975 
L 924.552 132.7975 
Q 921.552 132.7975 921.552 135.7975 
z
" style="fill: #f08080; opacity: 0.6; stroke: #000000; stroke-linejoin: miter"/>
    </g>
    <!-- Outflow -->
    <g transform="translate(926.631688 135.7975) rotate(-270) scale(0.1 -0.1)">
     <defs>
      <path id="DejaVuSans-Oblique-4f" d="M 2919 4238 
Q 2400 4238 2003 3986 
Q 1606 3734 1313 3219 
Q 1125 2891 1026 2522 
Q 928 2153 928 1778 
Q 928 1128 1239 775 
Q 1550 422 2119 422 
Q 2631 422 3032 676 
Q 3434 931 3719 1434 
Q 3909 1772 4009 2142 
Q 4109 2513 4109 2881 
Q 4109 3528 3796 3883 
Q 3484 4238 2919 4238 
z
M 2100 -91 
Q 1241 -91 748 418 
Q 256 928 256 1813 
Q 256 2319 448 2847 
Q 641 3375 978 3788 
Q 1375 4272 1862 4511 
Q 2350 4750 2938 4750 
Q 3794 4750 4287 4245 
Q 4781 3741 4781 2869 
Q 4781 2331 4593 1812 
Q 4406 1294 4056 872 
Q 3656 384 3173 146 
Q 2691 -91 2100 -91 
z
" transform="scale(0.015625)"/>
     </defs>
     <use xlink:href="#DejaVuSans-Oblique-4f"/>
     <use xlink:href="#DejaVuSans-Oblique-75" transform="translate(78.710938 0)"/>
     <use xlink:href="#DejaVuSans-Oblique-74" transform="translate(142.089844 0)"/>
     <use xlink:href="#DejaVuSans-Oblique-66" transform="translate(181.298828 0)"/>
     <use xlink:href="#DejaVuSans-Oblique-6c" transform="translate(216.503906 0)"/>
     <use xlink:href="#DejaVuSans-Oblique-6f" transform="translate(244.287109 0)"/>
     <use xlink:href="#DejaVuSans-Oblique-77" transform="translate(305.46875 0)"/>
    </g>
   </g>
   <g id="text_10">
    <g id="patch_12">
     <path d="M 529.421719 278.607687 
L 602.898281 278.607687 
Q 605.898281 278.607687 605.898281 275.607687 
L 605.898281 265.929562 
Q 605.898281 262.929562 602.898281 262.929562 
L 529.421719 262.929562 
Q 526.421719 262.929562 526.421719 265.929562 
L 526.421719 275.607687 
Q 526.421719 278.607687 529.421719 278.607687 
z
" style="fill: #808080; opacity: 0.6; stroke: #000000; stroke-linejoin: miter"/>
    </g>
    <!-- Reflecting wall -->
    <g transform="translate(529.421719 273.528) scale(0.1 -0.1)">
     <defs>
      <path id="DejaVuSans-Oblique-52" d="M 1613 4147 
L 1294 2491 
L 2106 2491 
Q 2584 2491 2879 2755 
Q 3175 3019 3175 3444 
Q 3175 3784 2976 3965 
Q 2778 4147 2406 4147 
L 1613 4147 
z
M 2772 2241 
Q 2972 2194 3105 2009 
Q 3238 1825 3413 1275 
L 3809 0 
L 3144 0 
L 2778 1197 
Q 2638 1659 2453 1815 
Q 2269 1972 1888 1972 
L 1191 1972 
L 806 0 
L 172 0 
L 1081 4666 
L 2503 4666 
Q 3150 4666 3495 4373 
Q 3841 4081 3841 3531 
Q 3841 3044 3547 2687 
Q 3253 2331 2772 2241 
z
" transform="scale(0.015625)"/>
      <path id="DejaVuSans-Oblique-65" d="M 3078 2063 
Q 3088 2113 3092 2166 
Q 3097 2219 3097 2272 
Q 3097 2653 2873 2875 
Q 2650 3097 2266 3097 
Q 1838 3097 1509 2826 
Q 1181 2556 1013 2059 
L 3078 2063 
z
M 3578 1613 
L 903 1613 
Q 884 1494 878 1425 
Q 872 1356 872 1306 
Q 872 872 1139 634 
Q 1406 397 1894 397 
Q 2269 397 2603 481 
Q 2938 566 3225 728 
L 3116 159 
Q 2806 34 2476 -28 
Q 2147 -91 1806 -91 
Q 1078 -91 686 257 
Q 294 606 294 1247 
Q 294 1794 489 2264 
Q 684 2734 1063 3103 
Q 1306 3334 1642 3459 
Q 1978 3584 2356 3584 
Q 2950 3584 3301 3228 
Q 3653 2872 3653 2272 
Q 3653 2128 3634 1964 
Q 3616 1800 3578 1613 
z
" transform="scale(0.015625)"/>
      <path id="DejaVuSans-Oblique-69" d="M 1172 4863 
L 1747 4863 
L 1606 4134 
L 1031 4134 
L 1172 4863 
z
M 909 3500 
L 1484 3500 
L 800 0 
L 225 0 
L 909 3500 
z
" transform="scale(0.015625)"/>
      <path id="DejaVuSans-Oblique-67" d="M 3816 3500 
L 3219 434 
Q 3047 -456 2561 -893 
Q 2075 -1331 1253 -1331 
Q 950 -1331 690 -1286 
Q 431 -1241 206 -1147 
L 313 -588 
Q 525 -725 762 -790 
Q 1000 -856 1269 -856 
Q 1816 -856 2167 -557 
Q 2519 -259 2631 300 
L 2681 563 
Q 2441 288 2122 144 
Q 1803 0 1434 0 
Q 903 0 598 351 
Q 294 703 294 1319 
Q 294 1803 478 2267 
Q 663 2731 997 3091 
Q 1219 3328 1514 3456 
Q 1809 3584 2131 3584 
Q 2484 3584 2746 3420 
Q 3009 3256 3138 2956 
L 3238 3500 
L 3816 3500 
z
M 2950 2216 
Q 2950 2641 2750 2872 
Q 2550 3103 2181 3103 
Q 1953 3103 1747 3012 
Q 1541 2922 1394 2759 
Q 1156 2491 1023 2127 
Q 891 1763 891 1375 
Q 891 944 1092 712 
Q 1294 481 1672 481 
Q 2219 481 2584 976 
Q 2950 1472 2950 2216 
z
" transform="scale(0.015625)"/>
      <path id="DejaVuSans-Oblique-61" d="M 3438 1997 
L 3047 0 
L 2472 0 
L 2578 531 
Q 2325 219 2001 64 
Q 1678 -91 1281 -91 
Q 834 -91 548 182 
Q 263 456 263 884 
Q 263 1497 752 1853 
Q 1241 2209 2100 2209 
L 2900 2209 
L 2931 2363 
Q 2938 2388 2941 2417 
Q 2944 2447 2944 2509 
Q 2944 2788 2717 2942 
Q 2491 3097 2081 3097 
Q 1800 3097 1504 3025 
Q 1209 2953 897 2809 
L 997 3341 
Q 1322 3463 1633 3523 
Q 1944 3584 2234 3584 
Q 2853 3584 3176 3315 
Q 3500 3047 3500 2534 
Q 3500 2431 3484 2292 
Q 3469 2153 3438 1997 
z
M 2816 1759 
L 2241 1759 
Q 1534 1759 1195 1570 
Q 856 1381 856 984 
Q 856 709 1029 553 
Q 1203 397 1509 397 
Q 1978 397 2328 733 
Q 2678 1069 2791 1631 
L 2816 1759 
z
" transform="scale(0.015625)"/>
     </defs>
     <use xlink:href="#DejaVuSans-Oblique-52"/>
     <use xlink:href="#DejaVuSans-Oblique-65" transform="translate(69.482422 0)"/>
     <use xlink:href="#DejaVuSans-Oblique-66" transform="translate(131.005859 0)"/>
     <use xlink:href="#DejaVuSans-Oblique-6c" transform="translate(166.210938 0)"/>
     <use xlink:href="#DejaVuSans-Oblique-65" transform="translate(193.994141 0)"/>
     <use xlink:href="#DejaVuSans-Oblique-63" transform="translate(255.517578 0)"/>
     <use xlink:href="#DejaVuSans-Oblique-74" transform="translate(310.498047 0)"/>
     <use xlink:href="#DejaVuSans-Oblique-69" transform="translate(349.707031 0)"/>
     <use xlink:href="#DejaVuSans-Oblique-6e" transform="translate(377.490234 0)"/>
     <use xlink:href="#DejaVuSans-Oblique-67" transform="translate(440.869141 0)"/>
     <use xlink:href="#DejaVuSans-Oblique-20" transform="translate(504.345703 0)"/>
     <use xlink:href="#DejaVuSans-Oblique-77" transform="translate(536.132812 0)"/>
     <use xlink:href="#DejaVuSans-Oblique-61" transform="translate(617.919922 0)"/>
     <use xlink:href="#DejaVuSans-Oblique-6c" transform="translate(679.199219 0)"/>
     <use xlink:href="#DejaVuSans-Oblique-6c" transform="translate(706.982422 0)"/>
    </g>
   </g>
   <g id="text_11">
    <g id="patch_13">
     <path d="M 26.928 35.987704 
L 229.290188 35.987704 
Q 231.990188 35.987704 231.990188 33.287704 
L 231.990188 14.49936 
Q 231.990188 11.79936 229.290188 11.79936 
L 26.928 11.79936 
Q 24.228 11.79936 24.228 14.49936 
L 24.228 33.287704 
Q 24.228 35.987704 26.928 35.987704 
z
" style="fill: #f5deb3; opacity: 0.7; stroke: #000000; stroke-linejoin: miter"/>
    </g>
    <!-- Note: Shock moves from left to right. -->
    <g transform="translate(26.928 21.337954) scale(0.09 -0.09)">
     <defs>
      <path id="DejaVuSans-4e" d="M 628 4666 
L 1478 4666 
L 3547 763 
L 3547 4666 
L 4159 4666 
L 4159 0 
L 3309 0 
L 1241 3903 
L 1241 0 
L 628 0 
L 628 4666 
z
" transform="scale(0.015625)"/>
      <path id="DejaVuSans-3a" d="M 750 794 
L 1409 794 
L 1409 0 
L 750 0 
L 750 794 
z
M 750 3309 
L 1409 3309 
L 1409 2516 
L 750 2516 
L 750 3309 
z
" transform="scale(0.015625)"/>
      <path id="DejaVuSans-53" d="M 3425 4513 
L 3425 3897 
Q 3066 4069 2747 4153 
Q 2428 4238 2131 4238 
Q 1616 4238 1336 4038 
Q 1056 3838 1056 3469 
Q 1056 3159 1242 3001 
Q 1428 2844 1947 2747 
L 2328 2669 
Q 3034 2534 3370 2195 
Q 3706 1856 3706 1288 
Q 3706 609 3251 259 
Q 2797 -91 1919 -91 
Q 1588 -91 1214 -16 
Q 841 59 441 206 
L 441 856 
Q 825 641 1194 531 
Q 1563 422 1919 422 
Q 2459 422 2753 634 
Q 3047 847 3047 1241 
Q 3047 1584 2836 1778 
Q 2625 1972 2144 2069 
L 1759 2144 
Q 1053 2284 737 2584 
Q 422 2884 422 3419 
Q 422 4038 858 4394 
Q 1294 4750 2059 4750 
Q 2388 4750 2728 4690 
Q 3069 4631 3425 4513 
z
" transform="scale(0.015625)"/>
      <path id="DejaVuSans-6d" d="M 3328 2828 
Q 3544 3216 3844 3400 
Q 4144 3584 4550 3584 
Q 5097 3584 5394 3201 
Q 5691 2819 5691 2113 
L 5691 0 
L 5113 0 
L 5113 2094 
Q 5113 2597 4934 2840 
Q 4756 3084 4391 3084 
Q 3944 3084 3684 2787 
Q 3425 2491 3425 1978 
L 3425 0 
L 2847 0 
L 2847 2094 
Q 2847 2600 2669 2842 
Q 2491 3084 2119 3084 
Q 1678 3084 1418 2786 
Q 1159 2488 1159 1978 
L 1159 0 
L 581 0 
L 581 3500 
L 1159 3500 
L 1159 2956 
Q 1356 3278 1631 3431 
Q 1906 3584 2284 3584 
Q 2666 3584 2933 3390 
Q 3200 3197 3328 2828 
z
" transform="scale(0.015625)"/>
      <path id="DejaVuSans-76" d="M 191 3500 
L 800 3500 
L 1894 563 
L 2988 3500 
L 3597 3500 
L 2284 0 
L 1503 0 
L 191 3500 
z
" transform="scale(0.015625)"/>
      <path id="DejaVuSans-66" d="M 2375 4863 
L 2375 4384 
L 1825 4384 
Q 1516 4384 1395 4259 
Q 1275 4134 1275 3809 
L 1275 3500 
L 2222 3500 
L 2222 3053 
L 1275 3053 
L 1275 0 
L 697 0 
L 697 3053 
L 147 3053 
L 147 3500 
L 697 3500 
L 697 3744 
Q 697 4328 969 4595 
Q 1241 4863 1831 4863 
L 2375 4863 
z
" transform="scale(0.015625)"/>
      <path id="DejaVuSans-6c" d="M 603 4863 
L 1178 4863 
L 1178 0 
L 603 0 
L 603 4863 
z
" transform="scale(0.015625)"/>
      <path id="DejaVuSans-67" d="M 2906 1791 
Q 2906 2416 2648 2759 
Q 2391 3103 1925 3103 
Q 1463 3103 1205 2759 
Q 947 2416 947 1791 
Q 947 1169 1205 825 
Q 1463 481 1925 481 
Q 2391 481 2648 825 
Q 2906 1169 2906 1791 
z
M 3481 434 
Q 3481 -459 3084 -895 
Q 2688 -1331 1869 -1331 
Q 1566 -1331 1297 -1286 
Q 1028 -1241 775 -1147 
L 775 -588 
Q 1028 -725 1275 -790 
Q 1522 -856 1778 -856 
Q 2344 -856 2625 -561 
Q 2906 -266 2906 331 
L 2906 616 
Q 2728 306 2450 153 
Q 2172 0 1784 0 
Q 1141 0 747 490 
Q 353 981 353 1791 
Q 353 2603 747 3093 
Q 1141 3584 1784 3584 
Q 2172 3584 2450 3431 
Q 2728 3278 2906 2969 
L 2906 3500 
L 3481 3500 
L 3481 434 
z
" transform="scale(0.015625)"/>
     </defs>
     <use xlink:href="#DejaVuSans-4e"/>
     <use xlink:href="#DejaVuSans-6f" transform="translate(74.804688 0)"/>
     <use xlink:href="#DejaVuSans-74" transform="translate(135.986328 0)"/>
     <use xlink:href="#DejaVuSans-65" transform="translate(175.195312 0)"/>
     <use xlink:href="#DejaVuSans-3a" transform="translate(236.71875 0)"/>
     <use xlink:href="#DejaVuSans-20" transform="translate(270.410156 0)"/>
     <use xlink:href="#DejaVuSans-53" transform="translate(302.197266 0)"/>
     <use xlink:href="#DejaVuSans-68" transform="translate(365.673828 0)"/>
     <use xlink:href="#DejaVuSans-6f" transform="translate(429.052734 0)"/>
     <use xlink:href="#DejaVuSans-63" transform="translate(490.234375 0)"/>
     <use xlink:href="#DejaVuSans-6b" transform="translate(545.214844 0)"/>
     <use xlink:href="#DejaVuSans-20" transform="translate(603.125 0)"/>
     <use xlink:href="#DejaVuSans-6d" transform="translate(634.912109 0)"/>
     <use xlink:href="#DejaVuSans-6f" transform="translate(732.324219 0)"/>
     <use xlink:href="#DejaVuSans-76" transform="translate(793.505859 0)"/>
     <use xlink:href="#DejaVuSans-65" transform="translate(852.685547 0)"/>
     <use xlink:href="#DejaVuSans-73" transform="translate(914.208984 0)"/>
     <use xlink:href="#DejaVuSans-20" transform="translate(966.308594 0)"/>
     <use xlink:href="#DejaVuSans-66" transform="translate(998.095703 0)"/>
     <use xlink:href="#DejaVuSans-72" transform="translate(1033.300781 0)"/>
     <use xlink:href="#DejaVuSans-6f" transform="translate(1072.164062 0)"/>
     <use xlink:href="#DejaVuSans-6d" transform="translate(1133.345703 0)"/>
     <use xlink:href="#DejaVuSans-20" transform="translate(1230.757812 0)"/>
     <use xlink:href="#DejaVuSans-6c" transform="translate(1262.544922 0)"/>
     <use xlink:href="#DejaVuSans-65" transform="translate(1290.328125 0)"/>
     <use xlink:href="#DejaVuSans-66" transform="translate(1351.851562 0)"/>
     <use xlink:href="#DejaVuSans-74" transform="translate(1385.306641 0)"/>
     <use xlink:href="#DejaVuSans-20" transform="translate(1424.515625 0)"/>
     <use xlink:href="#DejaVuSans-74" transform="translate(1456.302734 0)"/>
     <use xlink:href="#DejaVuSans-6f" transform="translate(1495.511719 0)"/>
     <use xlink:href="#DejaVuSans-20" transform="translate(1556.693359 0)"/>
     <use xlink:href="#DejaVuSans-72" transform="translate(1588.480469 0)"/>
     <use xlink:href="#DejaVuSans-69" transform="translate(1629.59375 0)"/>
     <use xlink:href="#DejaVuSans-67" transform="translate(1657.376953 0)"/>
     <use xlink:href="#DejaVuSans-68" transform="translate(1720.853516 0)"/>
     <use xlink:href="#DejaVuSans-74" transform="translate(1784.232422 0)"/>
     <use xlink:href="#DejaVuSans-2e" transform="translate(1823.441406 0)"/>
    </g>
    <!-- Complex reflection pattern forms at the wall. -->
    <g transform="translate(26.928 31.415985) scale(0.09 -0.09)">
     <defs>
      <path id="DejaVuSans-43" d="M 4122 4306 
L 4122 3641 
Q 3803 3938 3442 4084 
Q 3081 4231 2675 4231 
Q 1875 4231 1450 3742 
Q 1025 3253 1025 2328 
Q 1025 1406 1450 917 
Q 1875 428 2675 428 
Q 3081 428 3442 575 
Q 3803 722 4122 1019 
L 4122 359 
Q 3791 134 3420 21 
Q 3050 -91 2638 -91 
Q 1578 -91 968 557 
Q 359 1206 359 2328 
Q 359 3453 968 4101 
Q 1578 4750 2638 4750 
Q 3056 4750 3426 4639 
Q 3797 4528 4122 4306 
z
" transform="scale(0.015625)"/>
      <path id="DejaVuSans-70" d="M 1159 525 
L 1159 -1331 
L 581 -1331 
L 581 3500 
L 1159 3500 
L 1159 2969 
Q 1341 3281 1617 3432 
Q 1894 3584 2278 3584 
Q 2916 3584 3314 3078 
Q 3713 2572 3713 1747 
Q 3713 922 3314 415 
Q 2916 -91 2278 -91 
Q 1894 -91 1617 61 
Q 1341 213 1159 525 
z
M 3116 1747 
Q 3116 2381 2855 2742 
Q 2594 3103 2138 3103 
Q 1681 3103 1420 2742 
Q 1159 2381 1159 1747 
Q 1159 1113 1420 752 
Q 1681 391 2138 391 
Q 2594 391 2855 752 
Q 3116 1113 3116 1747 
z
" transform="scale(0.015625)"/>
      <path id="DejaVuSans-78" d="M 3513 3500 
L 2247 1797 
L 3578 0 
L 2900 0 
L 1881 1375 
L 863 0 
L 184 0 
L 1544 1831 
L 300 3500 
L 978 3500 
L 1906 2253 
L 2834 3500 
L 3513 3500 
z
" transform="scale(0.015625)"/>
      <path id="DejaVuSans-77" d="M 269 3500 
L 844 3500 
L 1563 769 
L 2278 3500 
L 2956 3500 
L 3675 769 
L 4391 3500 
L 4966 3500 
L 4050 0 
L 3372 0 
L 2619 2869 
L 1863 0 
L 1184 0 
L 269 3500 
z
" transform="scale(0.015625)"/>
     </defs>
     <use xlink:href="#DejaVuSans-43"/>
     <use xlink:href="#DejaVuSans-6f" transform="translate(69.824219 0)"/>
     <use xlink:href="#DejaVuSans-6d" transform="translate(131.005859 0)"/>
     <use xlink:href="#DejaVuSans-70" transform="translate(228.417969 0)"/>
     <use xlink:href="#DejaVuSans-6c" transform="translate(291.894531 0)"/>
     <use xlink:href="#DejaVuSans-65" transform="translate(319.677734 0)"/>
     <use xlink:href="#DejaVuSans-78" transform="translate(379.451172 0)"/>
     <use xlink:href="#DejaVuSans-20" transform="translate(438.630859 0)"/>
     <use xlink:href="#DejaVuSans-72" transform="translate(470.417969 0)"/>
     <use xlink:href="#DejaVuSans-65" transform="translate(509.28125 0)"/>
     <use xlink:href="#DejaVuSans-66" transform="translate(570.804688 0)"/>
     <use xlink:href="#DejaVuSans-6c" transform="translate(606.009766 0)"/>
     <use xlink:href="#DejaVuSans-65" transform="translate(633.792969 0)"/>
     <use xlink:href="#DejaVuSans-63" transform="translate(695.316406 0)"/>
     <use xlink:href="#DejaVuSans-74" transform="translate(750.296875 0)"/>
     <use xlink:href="#DejaVuSans-69" transform="translate(789.505859 0)"/>
     <use xlink:href="#DejaVuSans-6f" transform="translate(817.289062 0)"/>
     <use xlink:href="#DejaVuSans-6e" transform="translate(878.470703 0)"/>
     <use xlink:href="#DejaVuSans-20" transform="translate(941.849609 0)"/>
     <use xlink:href="#DejaVuSans-70" transform="translate(973.636719 0)"/>
     <use xlink:href="#DejaVuSans-61" transform="translate(1037.113281 0)"/>
     <use xlink:href="#DejaVuSans-74" transform="translate(1098.392578 0)"/>
     <use xlink:href="#DejaVuSans-74" transform="translate(1137.601562 0)"/>
     <use xlink:href="#DejaVuSans-65" transform="translate(1176.810547 0)"/>
     <use xlink:href="#DejaVuSans-72" transform="translate(1238.333984 0)"/>
     <use xlink:href="#DejaVuSans-6e" transform="translate(1277.697266 0)"/>
     <use xlink:href="#DejaVuSans-20" transform="translate(1341.076172 0)"/>
     <use xlink:href="#DejaVuSans-66" transform="translate(1372.863281 0)"/>
     <use xlink:href="#DejaVuSans-6f" transform="translate(1408.068359 0)"/>
     <use xlink:href="#DejaVuSans-72" transform="translate(1469.25 0)"/>
     <use xlink:href="#DejaVuSans-6d" transform="translate(1508.613281 0)"/>
     <use xlink:href="#DejaVuSans-73" transform="translate(1606.025391 0)"/>
     <use xlink:href="#DejaVuSans-20" transform="translate(1658.125 0)"/>
     <use xlink:href="#DejaVuSans-61" transform="translate(1689.912109 0)"/>
     <use xlink:href="#DejaVuSans-74" transform="translate(1751.191406 0)"/>
     <use xlink:href="#DejaVuSans-20" transform="translate(1790.400391 0)"/>
     <use xlink:href="#DejaVuSans-74" transform="translate(1822.1875 0)"/>
     <use xlink:href="#DejaVuSans-68" transform="translate(1861.396484 0)"/>
     <use xlink:href="#DejaVuSans-65" transform="translate(1924.775391 0)"/>
     <use xlink:href="#DejaVuSans-20" transform="translate(1986.298828 0)"/>
     <use xlink:href="#DejaVuSans-77" transform="translate(2018.085938 0)"/>
     <use xlink:href="#DejaVuSans-61" transform="translate(2099.873047 0)"/>
     <use xlink:href="#DejaVuSans-6c" transform="translate(2161.152344 0)"/>
     <use xlink:href="#DejaVuSans-6c" transform="translate(2188.935547 0)"/>
     <use xlink:href="#DejaVuSans-2e" transform="translate(2216.71875 0)"/>
    </g>
   </g>
  </g>
 </g>
 <defs>
  <clipPath id="pf886ce0049">
   <rect x="7.2" y="7.2" width="986.4" height="364.968"/>
  </clipPath>
 </defs>
 <defs>
  <pattern id="hbd1f27314e" patternUnits="userSpaceOnUse" x="0" y="0" width="72" height="72">
   <rect x="0" y="0" width="73" height="73" fill="#d3d3d3"/>
   <path d="M -36 36 
L 36 -36 
M -32 40 
L 40 -32 
M -28 44 
L 44 -28 
M -24 48 
L 48 -24 
M -20 52 
L 52 -20 
M -16 56 
L 56 -16 
M -12 60 
L 60 -12 
M -8 64 
L 64 -8 
M -4 68 
L 68 -4 
M 0 72 
L 72 0 
M 4 76 
L 76 4 
M 8 80 
L 80 8 
M 12 84 
L 84 12 
M 16 88 
L 88 16 
M 20 92 
L 92 20 
M 24 96 
L 96 24 
M 28 100 
L 100 28 
M 32 104 
L 104 32 
M 36 108 
L 108 36 
" style="fill: #000000; stroke: #000000; stroke-width: 1.0; stroke-linecap: butt; stroke-linejoin: miter"/>
  </pattern>
 </defs>
</svg>
