<?xml version="1.0" encoding="utf-8" standalone="no"?>
<!DOCTYPE svg PUBLIC "-//W3C//DTD SVG 1.1//EN"
  "http://www.w3.org/Graphics/SVG/1.1/DTD/svg11.dtd">
<svg xmlns:xlink="http://www.w3.org/1999/xlink" width="1000.8pt" height="865.17pt" viewBox="0 0 1000.8 865.17" xmlns="http://www.w3.org/2000/svg" version="1.1">
 <metadata>
  <rdf:RDF xmlns:dc="http://purl.org/dc/elements/1.1/" xmlns:cc="http://creativecommons.org/ns#" xmlns:rdf="http://www.w3.org/1999/02/22-rdf-syntax-ns#">
   <cc:Work>
    <dc:type rdf:resource="http://purl.org/dc/dcmitype/StillImage"/>
    <dc:date>2025-11-11T13:11:56.070644</dc:date>
    <dc:format>image/svg+xml</dc:format>
    <dc:creator>
     <cc:Agent>
      <dc:title>Matplotlib v3.10.7, https://matplotlib.org/</dc:title>
     </cc:Agent>
    </dc:creator>
   </cc:Work>
  </rdf:RDF>
 </metadata>
 <defs>
  <style type="text/css">*{stroke-linejoin: round; stroke-linecap: butt}</style>
 </defs>
 <g id="figure_1">
  <g id="patch_1">
   <path d="M 0 865.17 
L 1000.8 865.17 
L 1000.8 0 
L 0 0 
z
" style="fill: #ffffff"/>
  </g>
  <g id="axes_1">
   <g id="patch_2">
    <path d="M 500.4 303.12 
L 747 303.12 
L 747 155.16 
L 500.4 155.16 
z
" clip-path="url(#pc502ad20d2)" style="fill: #ffd93d; opacity: 0.7; stroke: #000000; stroke-width: 2; stroke-linejoin: miter"/>
   </g>
   <g id="patch_3">
    <path d="M 747 303.12 
L 993.6 303.12 
L 993.6 155.16 
L 747 155.16 
z
" clip-path="url(#pc502ad20d2)" style="fill: #ffd93d; opacity: 0.7; stroke: #000000; stroke-width: 2; stroke-linejoin: miter"/>
   </g>
   <g id="patch_4">
    <path d="M 253.8 303.12 
L 500.4 303.12 
L 500.4 155.16 
L 253.8 155.16 
z
" clip-path="url(#pc502ad20d2)" style="fill: #ffb6c6; opacity: 0.5; stroke-dasharray: 11.1,4.8; stroke-dashoffset: 0; stroke: #ff0000; stroke-width: 3; stroke-linejoin: miter"/>
   </g>
   <g id="patch_5">
    <path d="M 7.2 673.02 
L 500.4 673.02 
L 500.4 525.06 
L 7.2 525.06 
z
" clip-path="url(#pc502ad20d2)" style="fill: #a8d5e2; opacity: 0.7; stroke: #000000; stroke-width: 2; stroke-linejoin: miter"/>
   </g>
   <g id="patch_6">
    <path d="M 500.4 673.02 
L 993.6 673.02 
L 993.6 525.06 
L 500.4 525.06 
z
" clip-path="url(#pc502ad20d2)" style="fill: #ffb6c6; opacity: 0.5; stroke-dasharray: 11.1,4.8; stroke-dashoffset: 0; stroke: #ff0000; stroke-width: 3; stroke-linejoin: miter"/>
   </g>
   <g id="line2d_1">
    <path d="M 500.4 783.99 
L 500.4 93.51 
" clip-path="url(#pc502ad20d2)" style="fill: none; stroke-dasharray: 7.4,3.2; stroke-dashoffset: 0; stroke: #ff0000; stroke-opacity: 0.5; stroke-width: 2"/>
   </g>
   <g id="text_1">
    <!-- Level l+1 (fine): -->
    <g style="fill: #8b4513" transform="translate(321.189375 118.17) scale(0.13 -0.13)">
     <defs>
      <path id="DejaVuSans-Bold-4c" d="M 588 4666 
L 1791 4666 
L 1791 909 
L 3903 909 
L 3903 0 
L 588 0 
L 588 4666 
z
" transform="scale(0.015625)"/>
      <path id="DejaVuSans-Bold-65" d="M 4031 1759 
L 4031 1441 
L 1416 1441 
Q 1456 1047 1700 850 
Q 1944 653 2381 653 
Q 2734 653 3104 758 
Q 3475 863 3866 1075 
L 3866 213 
Q 3469 63 3072 -14 
Q 2675 -91 2278 -91 
Q 1328 -91 801 392 
Q 275 875 275 1747 
Q 275 2603 792 3093 
Q 1309 3584 2216 3584 
Q 3041 3584 3536 3087 
Q 4031 2591 4031 1759 
z
M 2881 2131 
Q 2881 2450 2695 2645 
Q 2509 2841 2209 2841 
Q 1884 2841 1681 2658 
Q 1478 2475 1428 2131 
L 2881 2131 
z
" transform="scale(0.015625)"/>
      <path id="DejaVuSans-Bold-76" d="M 97 3500 
L 1216 3500 
L 2088 1081 
L 2956 3500 
L 4078 3500 
L 2700 0 
L 1472 0 
L 97 3500 
z
" transform="scale(0.015625)"/>
      <path id="DejaVuSans-Bold-6c" d="M 538 4863 
L 1656 4863 
L 1656 0 
L 538 0 
L 538 4863 
z
" transform="scale(0.015625)"/>
      <path id="DejaVuSans-Bold-20" transform="scale(0.015625)"/>
      <path id="DejaVuSans-Bold-2b" d="M 3053 4013 
L 3053 2375 
L 4684 2375 
L 4684 1638 
L 3053 1638 
L 3053 0 
L 2309 0 
L 2309 1638 
L 678 1638 
L 678 2375 
L 2309 2375 
L 2309 4013 
L 3053 4013 
z
" transform="scale(0.015625)"/>
      <path id="DejaVuSans-Bold-31" d="M 750 831 
L 1813 831 
L 1813 3847 
L 722 3622 
L 722 4441 
L 1806 4666 
L 2950 4666 
L 2950 831 
L 4013 831 
L 4013 0 
L 750 0 
L 750 831 
z
" transform="scale(0.015625)"/>
      <path id="DejaVuSans-Bold-28" d="M 2413 -844 
L 1484 -844 
Q 1006 -72 778 623 
Q 550 1319 550 2003 
Q 550 2688 779 3389 
Q 1009 4091 1484 4856 
L 2413 4856 
Q 2013 4116 1813 3408 
Q 1613 2700 1613 2009 
Q 1613 1319 1811 609 
Q 2009 -100 2413 -844 
z
" transform="scale(0.015625)"/>
      <path id="DejaVuSans-Bold-66" d="M 2841 4863 
L 2841 4128 
L 2222 4128 
Q 1984 4128 1890 4042 
Q 1797 3956 1797 3744 
L 1797 3500 
L 2753 3500 
L 2753 2700 
L 1797 2700 
L 1797 0 
L 678 0 
L 678 2700 
L 122 2700 
L 122 3500 
L 678 3500 
L 678 3744 
Q 678 4316 997 4589 
Q 1316 4863 1984 4863 
L 2841 4863 
z
" transform="scale(0.015625)"/>
      <path id="DejaVuSans-Bold-69" d="M 538 3500 
L 1656 3500 
L 1656 0 
L 538 0 
L 538 3500 
z
M 538 4863 
L 1656 4863 
L 1656 3950 
L 538 3950 
L 538 4863 
z
" transform="scale(0.015625)"/>
      <path id="DejaVuSans-Bold-6e" d="M 4056 2131 
L 4056 0 
L 2931 0 
L 2931 347 
L 2931 1631 
Q 2931 2084 2911 2256 
Q 2891 2428 2841 2509 
Q 2775 2619 2662 2680 
Q 2550 2741 2406 2741 
Q 2056 2741 1856 2470 
Q 1656 2200 1656 1722 
L 1656 0 
L 538 0 
L 538 3500 
L 1656 3500 
L 1656 2988 
Q 1909 3294 2193 3439 
Q 2478 3584 2822 3584 
Q 3428 3584 3742 3212 
Q 4056 2841 4056 2131 
z
" transform="scale(0.015625)"/>
      <path id="DejaVuSans-Bold-29" d="M 513 -844 
Q 913 -100 1113 609 
Q 1313 1319 1313 2009 
Q 1313 2700 1113 3408 
Q 913 4116 513 4856 
L 1441 4856 
Q 1916 4091 2145 3389 
Q 2375 2688 2375 2003 
Q 2375 1319 2147 623 
Q 1919 -72 1441 -844 
L 513 -844 
z
" transform="scale(0.015625)"/>
      <path id="DejaVuSans-Bold-3a" d="M 716 3500 
L 1844 3500 
L 1844 2291 
L 716 2291 
L 716 3500 
z
M 716 1209 
L 1844 1209 
L 1844 0 
L 716 0 
L 716 1209 
z
" transform="scale(0.015625)"/>
     </defs>
     <use xlink:href="#DejaVuSans-Bold-4c"/>
     <use xlink:href="#DejaVuSans-Bold-65" transform="translate(63.720703 0)"/>
     <use xlink:href="#DejaVuSans-Bold-76" transform="translate(131.542969 0)"/>
     <use xlink:href="#DejaVuSans-Bold-65" transform="translate(196.728516 0)"/>
     <use xlink:href="#DejaVuSans-Bold-6c" transform="translate(264.550781 0)"/>
     <use xlink:href="#DejaVuSans-Bold-20" transform="translate(298.828125 0)"/>
     <use xlink:href="#DejaVuSans-Bold-6c" transform="translate(333.642578 0)"/>
     <use xlink:href="#DejaVuSans-Bold-2b" transform="translate(367.919922 0)"/>
     <use xlink:href="#DejaVuSans-Bold-31" transform="translate(451.708984 0)"/>
     <use xlink:href="#DejaVuSans-Bold-20" transform="translate(521.289062 0)"/>
     <use xlink:href="#DejaVuSans-Bold-28" transform="translate(556.103516 0)"/>
     <use xlink:href="#DejaVuSans-Bold-66" transform="translate(601.806641 0)"/>
     <use xlink:href="#DejaVuSans-Bold-69" transform="translate(645.3125 0)"/>
     <use xlink:href="#DejaVuSans-Bold-6e" transform="translate(679.589844 0)"/>
     <use xlink:href="#DejaVuSans-Bold-65" transform="translate(750.78125 0)"/>
     <use xlink:href="#DejaVuSans-Bold-29" transform="translate(818.603516 0)"/>
     <use xlink:href="#DejaVuSans-Bold-3a" transform="translate(864.306641 0)"/>
    </g>
   </g>
   <g id="text_2">
    <!-- $u_{j-1}^{l+1}$ -->
    <g transform="translate(603.81 233.64) scale(0.18 -0.18)">
     <defs>
      <path id="DejaVuSans-Oblique-75" d="M 428 1388 
L 838 3500 
L 1416 3500 
L 1006 1409 
Q 975 1256 961 1147 
Q 947 1038 947 966 
Q 947 700 1109 554 
Q 1272 409 1569 409 
Q 2031 409 2368 721 
Q 2706 1034 2809 1563 
L 3194 3500 
L 3769 3500 
L 3091 0 
L 2516 0 
L 2631 550 
Q 2388 244 2052 76 
Q 1716 -91 1338 -91 
Q 878 -91 622 161 
Q 366 413 366 863 
Q 366 956 381 1097 
Q 397 1238 428 1388 
z
" transform="scale(0.015625)"/>
      <path id="DejaVuSans-Oblique-6c" d="M 1172 4863 
L 1747 4863 
L 800 0 
L 225 0 
L 1172 4863 
z
" transform="scale(0.015625)"/>
      <path id="DejaVuSans-2b" d="M 2944 4013 
L 2944 2272 
L 4684 2272 
L 4684 1741 
L 2944 1741 
L 2944 0 
L 2419 0 
L 2419 1741 
L 678 1741 
L 678 2272 
L 2419 2272 
L 2419 4013 
L 2944 4013 
z
" transform="scale(0.015625)"/>
      <path id="DejaVuSans-31" d="M 794 531 
L 1825 531 
L 1825 4091 
L 703 3866 
L 703 4441 
L 1819 4666 
L 2450 4666 
L 2450 531 
L 3481 531 
L 3481 0 
L 794 0 
L 794 531 
z
" transform="scale(0.015625)"/>
      <path id="DejaVuSans-Oblique-6a" d="M 928 3500 
L 1503 3500 
L 813 -63 
L 809 -78 
Q 694 -675 544 -897 
Q 403 -1106 132 -1218 
Q -138 -1331 -506 -1331 
L -722 -1331 
L -628 -844 
L -481 -844 
Q -144 -844 -1 -703 
Q 141 -563 238 -63 
L 928 3500 
z
M 1197 4863 
L 1772 4863 
L 1631 4134 
L 1056 4134 
L 1197 4863 
z
" transform="scale(0.015625)"/>
      <path id="DejaVuSans-2212" d="M 678 2272 
L 4684 2272 
L 4684 1741 
L 678 1741 
L 678 2272 
z
" transform="scale(0.015625)"/>
     </defs>
     <use xlink:href="#DejaVuSans-Oblique-75" transform="translate(0 0.465625)"/>
     <use xlink:href="#DejaVuSans-Oblique-6c" transform="translate(67.845052 38.810938) scale(0.7)"/>
     <use xlink:href="#DejaVuSans-2b" transform="translate(100.93099 38.810938) scale(0.7)"/>
     <use xlink:href="#DejaVuSans-31" transform="translate(173.221029 38.810938) scale(0.7)"/>
     <use xlink:href="#DejaVuSans-Oblique-6a" transform="translate(63.378906 -26.878125) scale(0.7)"/>
     <use xlink:href="#DejaVuSans-2212" transform="translate(96.464844 -26.878125) scale(0.7)"/>
     <use xlink:href="#DejaVuSans-31" transform="translate(168.754883 -26.878125) scale(0.7)"/>
    </g>
   </g>
   <g id="text_3">
    <!-- $u_j^{l+1}$ -->
    <g transform="translate(850.41 233.64) scale(0.18 -0.18)">
     <use xlink:href="#DejaVuSans-Oblique-75" transform="translate(0 0.465625)"/>
     <use xlink:href="#DejaVuSans-Oblique-6c" transform="translate(67.845052 38.810938) scale(0.7)"/>
     <use xlink:href="#DejaVuSans-2b" transform="translate(100.93099 38.810938) scale(0.7)"/>
     <use xlink:href="#DejaVuSans-31" transform="translate(173.221029 38.810938) scale(0.7)"/>
     <use xlink:href="#DejaVuSans-Oblique-6a" transform="translate(63.378906 -26.878125) scale(0.7)"/>
    </g>
   </g>
   <g id="text_4">
    <!-- $\tilde{u}_{j-2}^{l+1}$ -->
    <g transform="translate(357.57 233.64) scale(0.18 -0.18)">
     <defs>
      <path id="DejaVuSans-303" d="M -1619 4281 
L -1797 4453 
Q -1866 4516 -1917 4545 
Q -1969 4575 -2009 4575 
Q -2128 4575 -2184 4461 
Q -2241 4347 -2247 4091 
L -2638 4091 
Q -2631 4513 -2472 4742 
Q -2313 4972 -2028 4972 
Q -1909 4972 -1809 4928 
Q -1709 4884 -1594 4781 
L -1416 4609 
Q -1347 4547 -1295 4517 
Q -1244 4488 -1203 4488 
Q -1084 4488 -1028 4602 
Q -972 4716 -966 4972 
L -575 4972 
Q -581 4550 -740 4320 
Q -900 4091 -1184 4091 
Q -1303 4091 -1403 4134 
Q -1503 4178 -1619 4281 
z
" transform="scale(0.015625)"/>
      <path id="DejaVuSans-32" d="M 1228 531 
L 3431 531 
L 3431 0 
L 469 0 
L 469 531 
Q 828 903 1448 1529 
Q 2069 2156 2228 2338 
Q 2531 2678 2651 2914 
Q 2772 3150 2772 3378 
Q 2772 3750 2511 3984 
Q 2250 4219 1831 4219 
Q 1534 4219 1204 4116 
Q 875 4013 500 3803 
L 500 4441 
Q 881 4594 1212 4672 
Q 1544 4750 1819 4750 
Q 2544 4750 2975 4387 
Q 3406 4025 3406 3419 
Q 3406 3131 3298 2873 
Q 3191 2616 2906 2266 
Q 2828 2175 2409 1742 
Q 1991 1309 1228 531 
z
" transform="scale(0.015625)"/>
     </defs>
     <use xlink:href="#DejaVuSans-303" transform="translate(65.063477 3.73125)"/>
     <use xlink:href="#DejaVuSans-Oblique-75" transform="translate(0 0.465625)"/>
     <use xlink:href="#DejaVuSans-Oblique-6c" transform="translate(64.335938 38.810938) scale(0.7)"/>
     <use xlink:href="#DejaVuSans-2b" transform="translate(97.421875 38.810938) scale(0.7)"/>
     <use xlink:href="#DejaVuSans-31" transform="translate(169.711914 38.810938) scale(0.7)"/>
     <use xlink:href="#DejaVuSans-Oblique-6a" transform="translate(64.335938 -26.878125) scale(0.7)"/>
     <use xlink:href="#DejaVuSans-2212" transform="translate(97.421875 -26.878125) scale(0.7)"/>
     <use xlink:href="#DejaVuSans-32" transform="translate(169.711914 -26.878125) scale(0.7)"/>
    </g>
   </g>
   <g id="text_5">
    <!-- GHOST -->
    <g style="fill: #ff0000" transform="translate(359.504297 340.783594) scale(0.09 -0.09)">
     <defs>
      <path id="DejaVuSans-Bold-47" d="M 4781 347 
Q 4331 128 3847 18 
Q 3363 -91 2847 -91 
Q 1681 -91 1000 561 
Q 319 1213 319 2328 
Q 319 3456 1012 4103 
Q 1706 4750 2913 4750 
Q 3378 4750 3804 4662 
Q 4231 4575 4609 4403 
L 4609 3438 
Q 4219 3659 3833 3768 
Q 3447 3878 3059 3878 
Q 2341 3878 1952 3476 
Q 1563 3075 1563 2328 
Q 1563 1588 1938 1184 
Q 2313 781 3003 781 
Q 3191 781 3352 804 
Q 3513 828 3641 878 
L 3641 1784 
L 2906 1784 
L 2906 2591 
L 4781 2591 
L 4781 347 
z
" transform="scale(0.015625)"/>
      <path id="DejaVuSans-Bold-48" d="M 588 4666 
L 1791 4666 
L 1791 2888 
L 3566 2888 
L 3566 4666 
L 4769 4666 
L 4769 0 
L 3566 0 
L 3566 1978 
L 1791 1978 
L 1791 0 
L 588 0 
L 588 4666 
z
" transform="scale(0.015625)"/>
      <path id="DejaVuSans-Bold-4f" d="M 2719 3878 
Q 2169 3878 1866 3472 
Q 1563 3066 1563 2328 
Q 1563 1594 1866 1187 
Q 2169 781 2719 781 
Q 3272 781 3575 1187 
Q 3878 1594 3878 2328 
Q 3878 3066 3575 3472 
Q 3272 3878 2719 3878 
z
M 2719 4750 
Q 3844 4750 4481 4106 
Q 5119 3463 5119 2328 
Q 5119 1197 4481 553 
Q 3844 -91 2719 -91 
Q 1597 -91 958 553 
Q 319 1197 319 2328 
Q 319 3463 958 4106 
Q 1597 4750 2719 4750 
z
" transform="scale(0.015625)"/>
      <path id="DejaVuSans-Bold-53" d="M 3834 4519 
L 3834 3531 
Q 3450 3703 3084 3790 
Q 2719 3878 2394 3878 
Q 1963 3878 1756 3759 
Q 1550 3641 1550 3391 
Q 1550 3203 1689 3098 
Q 1828 2994 2194 2919 
L 2706 2816 
Q 3484 2659 3812 2340 
Q 4141 2022 4141 1434 
Q 4141 663 3683 286 
Q 3225 -91 2284 -91 
Q 1841 -91 1394 -6 
Q 947 78 500 244 
L 500 1259 
Q 947 1022 1364 901 
Q 1781 781 2169 781 
Q 2563 781 2772 912 
Q 2981 1044 2981 1288 
Q 2981 1506 2839 1625 
Q 2697 1744 2272 1838 
L 1806 1941 
Q 1106 2091 782 2419 
Q 459 2747 459 3303 
Q 459 4000 909 4375 
Q 1359 4750 2203 4750 
Q 2588 4750 2994 4692 
Q 3400 4634 3834 4519 
z
" transform="scale(0.015625)"/>
      <path id="DejaVuSans-Bold-54" d="M 31 4666 
L 4331 4666 
L 4331 3756 
L 2784 3756 
L 2784 0 
L 1581 0 
L 1581 3756 
L 31 3756 
L 31 4666 
z
" transform="scale(0.015625)"/>
     </defs>
     <use xlink:href="#DejaVuSans-Bold-47"/>
     <use xlink:href="#DejaVuSans-Bold-48" transform="translate(82.080078 0)"/>
     <use xlink:href="#DejaVuSans-Bold-4f" transform="translate(165.771484 0)"/>
     <use xlink:href="#DejaVuSans-Bold-53" transform="translate(250.78125 0)"/>
     <use xlink:href="#DejaVuSans-Bold-54" transform="translate(322.802734 0)"/>
    </g>
   </g>
   <g id="text_6">
    <g id="patch_7">
     <path d="M 518.895 275.49 
L 554.775 275.49 
Q 558.675 275.49 558.675 271.59 
L 558.675 254.17 
Q 558.675 250.27 554.775 250.27 
L 518.895 250.27 
Q 514.995 250.27 514.995 254.17 
L 514.995 271.59 
Q 514.995 275.49 518.895 275.49 
z
" style="fill: #ffffff; stroke: #8b4513; stroke-width: 2; stroke-linejoin: miter"/>
    </g>
    <!-- $F_{j-1/2}^{l+1}$ -->
    <g style="fill: #8b4513" transform="translate(518.895 266.13) scale(0.13 -0.13)">
     <defs>
      <path id="DejaVuSans-Oblique-46" d="M 1081 4666 
L 3756 4666 
L 3653 4134 
L 1606 4134 
L 1338 2759 
L 3188 2759 
L 3084 2228 
L 1234 2228 
L 800 0 
L 172 0 
L 1081 4666 
z
" transform="scale(0.015625)"/>
      <path id="DejaVuSans-2f" d="M 1625 4666 
L 2156 4666 
L 531 -594 
L 0 -594 
L 1625 4666 
z
" transform="scale(0.015625)"/>
     </defs>
     <use xlink:href="#DejaVuSans-Oblique-46" transform="translate(0 0.465625)"/>
     <use xlink:href="#DejaVuSans-Oblique-6c" transform="translate(64.536302 38.810938) scale(0.7)"/>
     <use xlink:href="#DejaVuSans-2b" transform="translate(97.62224 38.810938) scale(0.7)"/>
     <use xlink:href="#DejaVuSans-31" transform="translate(169.912279 38.810938) scale(0.7)"/>
     <use xlink:href="#DejaVuSans-Oblique-6a" transform="translate(57.519531 -26.878125) scale(0.7)"/>
     <use xlink:href="#DejaVuSans-2212" transform="translate(90.605469 -26.878125) scale(0.7)"/>
     <use xlink:href="#DejaVuSans-31" transform="translate(162.895508 -26.878125) scale(0.7)"/>
     <use xlink:href="#DejaVuSans-2f" transform="translate(207.431641 -26.878125) scale(0.7)"/>
     <use xlink:href="#DejaVuSans-32" transform="translate(228.478125 -26.878125) scale(0.7)"/>
    </g>
   </g>
   <g id="patch_8">
    <path d="M 379.101443 258.732 
Q 432.586422 258.732 483.276316 258.732 
" style="fill: none; stroke: #8b4513; stroke-width: 2.5; stroke-linecap: round"/>
    <path d="M 479.276316 256.732 
L 483.276316 258.732 
L 479.276316 260.732 
" style="fill: none; stroke: #8b4513; stroke-width: 2.5; stroke-linecap: round"/>
   </g>
   <g id="text_7">
    <!-- $F(\tilde{u}_{j-2}^{l+1})$ -->
    <g style="fill: #8b4513" transform="translate(406.98 280.926) scale(0.18 -0.18)">
     <defs>
      <path id="DejaVuSans-28" d="M 1984 4856 
Q 1566 4138 1362 3434 
Q 1159 2731 1159 2009 
Q 1159 1288 1364 580 
Q 1569 -128 1984 -844 
L 1484 -844 
Q 1016 -109 783 600 
Q 550 1309 550 2009 
Q 550 2706 781 3412 
Q 1013 4119 1484 4856 
L 1984 4856 
z
" transform="scale(0.015625)"/>
      <path id="DejaVuSans-29" d="M 513 4856 
L 1013 4856 
Q 1481 4119 1714 3412 
Q 1947 2706 1947 2009 
Q 1947 1309 1714 600 
Q 1481 -109 1013 -844 
L 513 -844 
Q 928 -128 1133 580 
Q 1338 1288 1338 2009 
Q 1338 2731 1133 3434 
Q 928 4138 513 4856 
z
" transform="scale(0.015625)"/>
     </defs>
     <use xlink:href="#DejaVuSans-Oblique-46" transform="translate(0 0.465625)"/>
     <use xlink:href="#DejaVuSans-28" transform="translate(57.519531 0.465625)"/>
     <use xlink:href="#DejaVuSans-303" transform="translate(161.59668 3.73125)"/>
     <use xlink:href="#DejaVuSans-Oblique-75" transform="translate(96.533203 0.465625)"/>
     <use xlink:href="#DejaVuSans-Oblique-6c" transform="translate(160.869141 38.810938) scale(0.7)"/>
     <use xlink:href="#DejaVuSans-2b" transform="translate(193.955078 38.810938) scale(0.7)"/>
     <use xlink:href="#DejaVuSans-31" transform="translate(266.245117 38.810938) scale(0.7)"/>
     <use xlink:href="#DejaVuSans-Oblique-6a" transform="translate(160.869141 -26.878125) scale(0.7)"/>
     <use xlink:href="#DejaVuSans-2212" transform="translate(193.955078 -26.878125) scale(0.7)"/>
     <use xlink:href="#DejaVuSans-32" transform="translate(266.245117 -26.878125) scale(0.7)"/>
     <use xlink:href="#DejaVuSans-29" transform="translate(313.515625 0.465625)"/>
    </g>
   </g>
   <g id="patch_9">
    <path d="M 504.075107 364.77 
Q 623.70063 364.77 743.326153 364.77 
" style="fill: none; stroke: #000000; stroke-width: 1.5; stroke-linecap: round"/>
    <path d="M 508.075107 366.77 
L 504.075107 364.77 
L 508.075107 362.77 
" style="fill: none; stroke: #000000; stroke-width: 1.5; stroke-linecap: round"/>
    <path d="M 739.326153 362.77 
L 743.326153 364.77 
L 739.326153 366.77 
" style="fill: none; stroke: #000000; stroke-width: 1.5; stroke-linecap: round"/>
   </g>
   <g id="text_8">
    <!-- $\Delta x_{l+1}$ -->
    <g transform="translate(598.41 389.43) scale(0.18 -0.18)">
     <defs>
      <path id="DejaVuSans-394" d="M 2188 4044 
L 906 525 
L 3472 525 
L 2188 4044 
z
M 50 0 
L 1831 4666 
L 2547 4666 
L 4325 0 
L 50 0 
z
" transform="scale(0.015625)"/>
      <path id="DejaVuSans-Oblique-78" d="M 3841 3500 
L 2234 1784 
L 3219 0 
L 2559 0 
L 1819 1388 
L 531 0 
L -166 0 
L 1556 1844 
L 641 3500 
L 1300 3500 
L 1972 2234 
L 3144 3500 
L 3841 3500 
z
" transform="scale(0.015625)"/>
     </defs>
     <use xlink:href="#DejaVuSans-394" transform="translate(0 0.09375)"/>
     <use xlink:href="#DejaVuSans-Oblique-78" transform="translate(68.408203 0.09375)"/>
     <use xlink:href="#DejaVuSans-Oblique-6c" transform="translate(127.587891 -16.3125) scale(0.7)"/>
     <use xlink:href="#DejaVuSans-2b" transform="translate(160.673828 -16.3125) scale(0.7)"/>
     <use xlink:href="#DejaVuSans-31" transform="translate(232.963867 -16.3125) scale(0.7)"/>
    </g>
   </g>
   <g id="text_9">
    <!-- Level l (coarse): -->
    <g style="fill: #2e5090" transform="translate(320.935469 488.07) scale(0.13 -0.13)">
     <defs>
      <path id="DejaVuSans-Bold-63" d="M 3366 3391 
L 3366 2478 
Q 3138 2634 2908 2709 
Q 2678 2784 2431 2784 
Q 1963 2784 1702 2511 
Q 1441 2238 1441 1747 
Q 1441 1256 1702 982 
Q 1963 709 2431 709 
Q 2694 709 2930 787 
Q 3166 866 3366 1019 
L 3366 103 
Q 3103 6 2833 -42 
Q 2563 -91 2291 -91 
Q 1344 -91 809 395 
Q 275 881 275 1747 
Q 275 2613 809 3098 
Q 1344 3584 2291 3584 
Q 2566 3584 2833 3536 
Q 3100 3488 3366 3391 
z
" transform="scale(0.015625)"/>
      <path id="DejaVuSans-Bold-6f" d="M 2203 2784 
Q 1831 2784 1636 2517 
Q 1441 2250 1441 1747 
Q 1441 1244 1636 976 
Q 1831 709 2203 709 
Q 2569 709 2762 976 
Q 2956 1244 2956 1747 
Q 2956 2250 2762 2517 
Q 2569 2784 2203 2784 
z
M 2203 3584 
Q 3106 3584 3614 3096 
Q 4122 2609 4122 1747 
Q 4122 884 3614 396 
Q 3106 -91 2203 -91 
Q 1297 -91 786 396 
Q 275 884 275 1747 
Q 275 2609 786 3096 
Q 1297 3584 2203 3584 
z
" transform="scale(0.015625)"/>
      <path id="DejaVuSans-Bold-61" d="M 2106 1575 
Q 1756 1575 1579 1456 
Q 1403 1338 1403 1106 
Q 1403 894 1545 773 
Q 1688 653 1941 653 
Q 2256 653 2472 879 
Q 2688 1106 2688 1447 
L 2688 1575 
L 2106 1575 
z
M 3816 1997 
L 3816 0 
L 2688 0 
L 2688 519 
Q 2463 200 2181 54 
Q 1900 -91 1497 -91 
Q 953 -91 614 226 
Q 275 544 275 1050 
Q 275 1666 698 1953 
Q 1122 2241 2028 2241 
L 2688 2241 
L 2688 2328 
Q 2688 2594 2478 2717 
Q 2269 2841 1825 2841 
Q 1466 2841 1156 2769 
Q 847 2697 581 2553 
L 581 3406 
Q 941 3494 1303 3539 
Q 1666 3584 2028 3584 
Q 2975 3584 3395 3211 
Q 3816 2838 3816 1997 
z
" transform="scale(0.015625)"/>
      <path id="DejaVuSans-Bold-72" d="M 3138 2547 
Q 2991 2616 2845 2648 
Q 2700 2681 2553 2681 
Q 2122 2681 1889 2404 
Q 1656 2128 1656 1613 
L 1656 0 
L 538 0 
L 538 3500 
L 1656 3500 
L 1656 2925 
Q 1872 3269 2151 3426 
Q 2431 3584 2822 3584 
Q 2878 3584 2943 3579 
Q 3009 3575 3134 3559 
L 3138 2547 
z
" transform="scale(0.015625)"/>
      <path id="DejaVuSans-Bold-73" d="M 3272 3391 
L 3272 2541 
Q 2913 2691 2578 2766 
Q 2244 2841 1947 2841 
Q 1628 2841 1473 2761 
Q 1319 2681 1319 2516 
Q 1319 2381 1436 2309 
Q 1553 2238 1856 2203 
L 2053 2175 
Q 2913 2066 3209 1816 
Q 3506 1566 3506 1031 
Q 3506 472 3093 190 
Q 2681 -91 1863 -91 
Q 1516 -91 1145 -36 
Q 775 19 384 128 
L 384 978 
Q 719 816 1070 734 
Q 1422 653 1784 653 
Q 2113 653 2278 743 
Q 2444 834 2444 1013 
Q 2444 1163 2330 1236 
Q 2216 1309 1875 1350 
L 1678 1375 
Q 931 1469 631 1722 
Q 331 1975 331 2491 
Q 331 3047 712 3315 
Q 1094 3584 1881 3584 
Q 2191 3584 2531 3537 
Q 2872 3491 3272 3391 
z
" transform="scale(0.015625)"/>
     </defs>
     <use xlink:href="#DejaVuSans-Bold-4c"/>
     <use xlink:href="#DejaVuSans-Bold-65" transform="translate(63.720703 0)"/>
     <use xlink:href="#DejaVuSans-Bold-76" transform="translate(131.542969 0)"/>
     <use xlink:href="#DejaVuSans-Bold-65" transform="translate(196.728516 0)"/>
     <use xlink:href="#DejaVuSans-Bold-6c" transform="translate(264.550781 0)"/>
     <use xlink:href="#DejaVuSans-Bold-20" transform="translate(298.828125 0)"/>
     <use xlink:href="#DejaVuSans-Bold-6c" transform="translate(333.642578 0)"/>
     <use xlink:href="#DejaVuSans-Bold-20" transform="translate(367.919922 0)"/>
     <use xlink:href="#DejaVuSans-Bold-28" transform="translate(402.734375 0)"/>
     <use xlink:href="#DejaVuSans-Bold-63" transform="translate(448.4375 0)"/>
     <use xlink:href="#DejaVuSans-Bold-6f" transform="translate(507.714844 0)"/>
     <use xlink:href="#DejaVuSans-Bold-61" transform="translate(576.416016 0)"/>
     <use xlink:href="#DejaVuSans-Bold-72" transform="translate(643.896484 0)"/>
     <use xlink:href="#DejaVuSans-Bold-73" transform="translate(693.212891 0)"/>
     <use xlink:href="#DejaVuSans-Bold-65" transform="translate(752.734375 0)"/>
     <use xlink:href="#DejaVuSans-Bold-29" transform="translate(820.556641 0)"/>
     <use xlink:href="#DejaVuSans-Bold-3a" transform="translate(866.259766 0)"/>
    </g>
   </g>
   <g id="text_10">
    <!-- $u_{i-1}^l$ -->
    <g transform="translate(234.27 604.8) scale(0.18 -0.18)">
     <defs>
      <path id="DejaVuSans-Oblique-69" d="M 1172 4863 
L 1747 4863 
L 1606 4134 
L 1031 4134 
L 1172 4863 
z
M 909 3500 
L 1484 3500 
L 800 0 
L 225 0 
L 909 3500 
z
" transform="scale(0.015625)"/>
     </defs>
     <use xlink:href="#DejaVuSans-Oblique-75" transform="translate(0 0.465625)"/>
     <use xlink:href="#DejaVuSans-Oblique-6c" transform="translate(67.845052 38.810938) scale(0.7)"/>
     <use xlink:href="#DejaVuSans-Oblique-69" transform="translate(63.378906 -26.878125) scale(0.7)"/>
     <use xlink:href="#DejaVuSans-2212" transform="translate(96.464844 -26.878125) scale(0.7)"/>
     <use xlink:href="#DejaVuSans-31" transform="translate(168.754883 -26.878125) scale(0.7)"/>
    </g>
   </g>
   <g id="text_11">
    <!-- $\tilde{u}_i^l$ -->
    <g transform="translate(739.17 604.8) scale(0.18 -0.18)">
     <use xlink:href="#DejaVuSans-303" transform="translate(65.063477 3.73125)"/>
     <use xlink:href="#DejaVuSans-Oblique-75" transform="translate(0 0.465625)"/>
     <use xlink:href="#DejaVuSans-Oblique-6c" transform="translate(64.335938 38.810938) scale(0.7)"/>
     <use xlink:href="#DejaVuSans-Oblique-69" transform="translate(64.335938 -26.878125) scale(0.7)"/>
    </g>
   </g>
   <g id="text_12">
    <!-- GHOST -->
    <g style="fill: #ff0000" transform="translate(729.404297 710.683594) scale(0.09 -0.09)">
     <use xlink:href="#DejaVuSans-Bold-47"/>
     <use xlink:href="#DejaVuSans-Bold-48" transform="translate(82.080078 0)"/>
     <use xlink:href="#DejaVuSans-Bold-4f" transform="translate(165.771484 0)"/>
     <use xlink:href="#DejaVuSans-Bold-53" transform="translate(250.78125 0)"/>
     <use xlink:href="#DejaVuSans-Bold-54" transform="translate(322.802734 0)"/>
    </g>
   </g>
   <g id="text_13">
    <g id="patch_10">
     <path d="M 518.895 573.57 
L 568.575 573.57 
Q 573.975 573.57 573.975 568.17 
L 573.975 545.49 
Q 573.975 540.09 568.575 540.09 
L 518.895 540.09 
Q 513.495 540.09 513.495 545.49 
L 513.495 568.17 
Q 513.495 573.57 518.895 573.57 
z
" style="fill: #ffffff; stroke: #2e5090; stroke-width: 2; stroke-linejoin: miter"/>
    </g>
    <!-- $F_{i-1/2}^l$ -->
    <g style="fill: #2e5090" transform="translate(518.895 562.05) scale(0.18 -0.18)">
     <use xlink:href="#DejaVuSans-Oblique-46" transform="translate(0 0.465625)"/>
     <use xlink:href="#DejaVuSans-Oblique-6c" transform="translate(64.536302 38.810938) scale(0.7)"/>
     <use xlink:href="#DejaVuSans-Oblique-69" transform="translate(57.519531 -26.878125) scale(0.7)"/>
     <use xlink:href="#DejaVuSans-2212" transform="translate(90.605469 -26.878125) scale(0.7)"/>
     <use xlink:href="#DejaVuSans-31" transform="translate(162.895508 -26.878125) scale(0.7)"/>
     <use xlink:href="#DejaVuSans-2f" transform="translate(207.431641 -26.878125) scale(0.7)"/>
     <use xlink:href="#DejaVuSans-32" transform="translate(228.478125 -26.878125) scale(0.7)"/>
    </g>
   </g>
   <g id="patch_11">
    <path d="M 255.798244 569.448 
Q 370.93289 569.448 483.27245 569.448 
" style="fill: none; stroke: #2e5090; stroke-width: 2.5; stroke-linecap: round"/>
    <path d="M 479.27245 567.448 
L 483.27245 569.448 
L 479.27245 571.448 
" style="fill: none; stroke: #2e5090; stroke-width: 2.5; stroke-linecap: round"/>
   </g>
   <g id="text_14">
    <!-- $F(u_{i-1}^l)$ -->
    <g style="fill: #2e5090" transform="translate(345.42 547.254) scale(0.18 -0.18)">
     <use xlink:href="#DejaVuSans-Oblique-46" transform="translate(0 0.465625)"/>
     <use xlink:href="#DejaVuSans-28" transform="translate(57.519531 0.465625)"/>
     <use xlink:href="#DejaVuSans-Oblique-75" transform="translate(96.533203 0.465625)"/>
     <use xlink:href="#DejaVuSans-Oblique-6c" transform="translate(164.378255 38.810938) scale(0.7)"/>
     <use xlink:href="#DejaVuSans-Oblique-69" transform="translate(159.912109 -26.878125) scale(0.7)"/>
     <use xlink:href="#DejaVuSans-2212" transform="translate(192.998047 -26.878125) scale(0.7)"/>
     <use xlink:href="#DejaVuSans-31" transform="translate(265.288086 -26.878125) scale(0.7)"/>
     <use xlink:href="#DejaVuSans-29" transform="translate(312.558594 0.465625)"/>
    </g>
   </g>
   <g id="patch_12">
    <path d="M 10.875107 734.67 
Q 253.8003 734.67 496.725492 734.67 
" style="fill: none; stroke: #000000; stroke-width: 1.5; stroke-linecap: round"/>
    <path d="M 14.875107 736.67 
L 10.875107 734.67 
L 14.875107 732.67 
" style="fill: none; stroke: #000000; stroke-width: 1.5; stroke-linecap: round"/>
    <path d="M 492.725492 732.67 
L 496.725492 734.67 
L 492.725492 736.67 
" style="fill: none; stroke: #000000; stroke-width: 1.5; stroke-linecap: round"/>
   </g>
   <g id="text_15">
    <!-- $\Delta x_l = 2 \Delta x_{l+1}$ -->
    <g transform="translate(219.865 759.33) scale(0.11 -0.11)">
     <defs>
      <path id="DejaVuSans-3d" d="M 678 2906 
L 4684 2906 
L 4684 2381 
L 678 2381 
L 678 2906 
z
M 678 1631 
L 4684 1631 
L 4684 1100 
L 678 1100 
L 678 1631 
z
" transform="scale(0.015625)"/>
     </defs>
     <use xlink:href="#DejaVuSans-394" transform="translate(0 0.78125)"/>
     <use xlink:href="#DejaVuSans-Oblique-78" transform="translate(68.408203 0.78125)"/>
     <use xlink:href="#DejaVuSans-Oblique-6c" transform="translate(127.587891 -15.625) scale(0.7)"/>
     <use xlink:href="#DejaVuSans-3d" transform="translate(169.25293 0.78125)"/>
     <use xlink:href="#DejaVuSans-32" transform="translate(272.524414 0.78125)"/>
     <use xlink:href="#DejaVuSans-394" transform="translate(336.147461 0.78125)"/>
     <use xlink:href="#DejaVuSans-Oblique-78" transform="translate(404.555664 0.78125)"/>
     <use xlink:href="#DejaVuSans-Oblique-6c" transform="translate(463.735352 -15.625) scale(0.7)"/>
     <use xlink:href="#DejaVuSans-2b" transform="translate(496.821289 -15.625) scale(0.7)"/>
     <use xlink:href="#DejaVuSans-31" transform="translate(569.111328 -15.625) scale(0.7)"/>
    </g>
   </g>
   <g id="line2d_2">
    <path d="M 500.4 303.12 
L 500.4 155.16 
" clip-path="url(#pc502ad20d2)" style="fill: none; stroke: #8b4513; stroke-width: 5; stroke-linecap: square"/>
   </g>
   <g id="line2d_3">
    <path d="M 500.4 673.02 
L 500.4 525.06 
" clip-path="url(#pc502ad20d2)" style="fill: none; stroke: #2e5090; stroke-width: 5; stroke-linecap: square"/>
   </g>
  </g>
 </g>
 <defs>
  <clipPath id="pc502ad20d2">
   <rect x="7.2" y="7.2" width="986.4" height="850.77"/>
  </clipPath>
 </defs>
</svg>
