<?xml version="1.0" encoding="utf-8" standalone="no"?>
<!DOCTYPE svg PUBLIC "-//W3C//DTD SVG 1.1//EN"
  "http://www.w3.org/Graphics/SVG/1.1/DTD/svg11.dtd">
<svg xmlns:xlink="http://www.w3.org/1999/xlink" width="639.832836pt" height="712.8pt" viewBox="0 0 639.832836 712.8" xmlns="http://www.w3.org/2000/svg" version="1.1">
 <metadata>
  <rdf:RDF xmlns:dc="http://purl.org/dc/elements/1.1/" xmlns:cc="http://creativecommons.org/ns#" xmlns:rdf="http://www.w3.org/1999/02/22-rdf-syntax-ns#">
   <cc:Work>
    <dc:type rdf:resource="http://purl.org/dc/dcmitype/StillImage"/>
    <dc:date>2025-11-11T05:04:08.783303</dc:date>
    <dc:format>image/svg+xml</dc:format>
    <dc:creator>
     <cc:Agent>
      <dc:title>Matplotlib v3.10.7, https://matplotlib.org/</dc:title>
     </cc:Agent>
    </dc:creator>
   </cc:Work>
  </rdf:RDF>
 </metadata>
 <defs>
  <style type="text/css">*{stroke-linejoin: round; stroke-linecap: butt}</style>
 </defs>
 <g id="figure_1">
  <g id="patch_1">
   <path d="M 0 712.8 
L 639.832836 712.8 
L 639.832836 0 
L 0 0 
z
" style="fill: #ffffff"/>
  </g>
  <g id="axes_1">
   <g id="patch_2">
    <path d="M 85.379104 590.937313 
L 606.573134 590.937313 
L 606.573134 69.743284 
L 85.379104 69.743284 
L 85.379104 590.937313 
z
" clip-path="url(#pae4098b488)" style="fill: none; stroke: #000000; stroke-width: 2; stroke-linejoin: miter"/>
   </g>
   <g id="patch_3">
    <path d="M 345.976119 330.340299 
L 606.573134 330.340299 
L 606.573134 69.743284 
L 345.976119 69.743284 
z
" clip-path="url(#pae4098b488)" style="fill: #add8e6; opacity: 0.6; stroke: #000000; stroke-width: 1.5; stroke-linejoin: miter"/>
   </g>
   <g id="patch_4">
    <path d="M 85.379104 330.340299 
L 345.976119 330.340299 
L 345.976119 69.743284 
L 85.379104 69.743284 
z
" clip-path="url(#pae4098b488)" style="fill: #f08080; opacity: 0.6; stroke: #000000; stroke-width: 1.5; stroke-linejoin: miter"/>
   </g>
   <g id="patch_5">
    <path d="M 85.379104 590.937313 
L 345.976119 590.937313 
L 345.976119 330.340299 
L 85.379104 330.340299 
z
" clip-path="url(#pae4098b488)" style="fill: #90ee90; opacity: 0.6; stroke: #000000; stroke-width: 1.5; stroke-linejoin: miter"/>
   </g>
   <g id="patch_6">
    <path d="M 345.976119 590.937313 
L 606.573134 590.937313 
L 606.573134 330.340299 
L 345.976119 330.340299 
z
" clip-path="url(#pae4098b488)" style="fill: #ffffe0; opacity: 0.6; stroke: #000000; stroke-width: 1.5; stroke-linejoin: miter"/>
   </g>
   <g id="line2d_1">
    <path d="M 345.976119 590.937313 
L 345.976119 69.743284 
" clip-path="url(#pae4098b488)" style="fill: none; stroke-dasharray: 7.4,3.2; stroke-dashoffset: 0; stroke: #000000; stroke-width: 2"/>
   </g>
   <g id="line2d_2">
    <path d="M 85.379104 330.340299 
L 606.573134 330.340299 
" clip-path="url(#pae4098b488)" style="fill: none; stroke-dasharray: 7.4,3.2; stroke-dashoffset: 0; stroke: #000000; stroke-width: 2"/>
   </g>
   <g id="text_1">
    <g id="patch_7">
     <path d="M 451.799627 227.163494 
L 500.749627 227.163494 
Q 504.049627 227.163494 504.049627 223.863494 
L 504.049627 176.220088 
Q 504.049627 172.920088 500.749627 172.920088 
L 451.799627 172.920088 
Q 448.499627 172.920088 448.499627 176.220088 
L 448.499627 223.863494 
Q 448.499627 227.163494 451.799627 227.163494 
z
" style="fill: #ffffff; stroke: #000000; stroke-width: 1.5; stroke-linejoin: miter"/>
    </g>
    <!-- $\mathbf{Q}_1$ -->
    <g transform="translate(468.904627 184.578369) scale(0.11 -0.11)">
     <defs>
      <path id="DejaVuSans-Bold-51" d="M 2847 -84 
L 2753 -84 
Q 1600 -84 959 553 
Q 319 1191 319 2328 
Q 319 3463 958 4106 
Q 1597 4750 2719 4750 
Q 3853 4750 4486 4112 
Q 5119 3475 5119 2328 
Q 5119 1541 4783 972 
Q 4447 403 3816 116 
L 4756 -934 
L 3609 -934 
L 2847 -84 
z
M 2719 3878 
Q 2169 3878 1866 3472 
Q 1563 3066 1563 2328 
Q 1563 1578 1859 1179 
Q 2156 781 2719 781 
Q 3272 781 3575 1187 
Q 3878 1594 3878 2328 
Q 3878 3066 3575 3472 
Q 3272 3878 2719 3878 
z
" transform="scale(0.015625)"/>
      <path id="DejaVuSans-31" d="M 794 531 
L 1825 531 
L 1825 4091 
L 703 3866 
L 703 4441 
L 1819 4666 
L 2450 4666 
L 2450 531 
L 3481 531 
L 3481 0 
L 794 0 
L 794 531 
z
" transform="scale(0.015625)"/>
     </defs>
     <use xlink:href="#DejaVuSans-Bold-51" transform="translate(0 0.78125)"/>
     <use xlink:href="#DejaVuSans-31" transform="translate(85.966797 -15.625) scale(0.7)"/>
    </g>
    <!-- $\rho = 1.5$ -->
    <g transform="translate(457.244627 196.895963) scale(0.11 -0.11)">
     <defs>
      <path id="DejaVuSans-Oblique-3c1" d="M 1203 2875 
Q 1453 3194 1981 3475 
Q 2188 3584 2756 3584 
Q 3394 3584 3694 3078 
Q 3994 2572 3834 1747 
Q 3672 922 3175 415 
Q 2678 -91 2041 -91 
Q 1656 -91 1409 63 
Q 1163 213 1044 525 
L 681 -1331 
L 103 -1331 
L 697 1716 
Q 838 2438 1203 2875 
z
M 3238 1747 
Q 3359 2381 3169 2744 
Q 2978 3103 2522 3103 
Q 2066 3103 1734 2744 
Q 1403 2381 1281 1747 
Q 1156 1113 1347 750 
Q 1538 391 1994 391 
Q 2450 391 2781 750 
Q 3113 1113 3238 1747 
z
" transform="scale(0.015625)"/>
      <path id="DejaVuSans-3d" d="M 678 2906 
L 4684 2906 
L 4684 2381 
L 678 2381 
L 678 2906 
z
M 678 1631 
L 4684 1631 
L 4684 1100 
L 678 1100 
L 678 1631 
z
" transform="scale(0.015625)"/>
      <path id="DejaVuSans-2e" d="M 684 794 
L 1344 794 
L 1344 0 
L 684 0 
L 684 794 
z
" transform="scale(0.015625)"/>
      <path id="DejaVuSans-35" d="M 691 4666 
L 3169 4666 
L 3169 4134 
L 1269 4134 
L 1269 2991 
Q 1406 3038 1543 3061 
Q 1681 3084 1819 3084 
Q 2600 3084 3056 2656 
Q 3513 2228 3513 1497 
Q 3513 744 3044 326 
Q 2575 -91 1722 -91 
Q 1428 -91 1123 -41 
Q 819 9 494 109 
L 494 744 
Q 775 591 1075 516 
Q 1375 441 1709 441 
Q 2250 441 2565 725 
Q 2881 1009 2881 1497 
Q 2881 1984 2565 2268 
Q 2250 2553 1709 2553 
Q 1456 2553 1204 2497 
Q 953 2441 691 2322 
L 691 4666 
z
" transform="scale(0.015625)"/>
     </defs>
     <use xlink:href="#DejaVuSans-Oblique-3c1" transform="translate(0 0.09375)"/>
     <use xlink:href="#DejaVuSans-3d" transform="translate(82.958984 0.09375)"/>
     <use xlink:href="#DejaVuSans-31" transform="translate(186.230469 0.09375)"/>
     <use xlink:href="#DejaVuSans-2e" transform="translate(249.853516 0.09375)"/>
     <use xlink:href="#DejaVuSans-35" transform="translate(281.640625 0.09375)"/>
    </g>
    <!-- $p = 1.5$ -->
    <g transform="translate(457.244627 209.2359) scale(0.11 -0.11)">
     <defs>
      <path id="DejaVuSans-Oblique-70" d="M 3175 2156 
Q 3175 2616 2975 2859 
Q 2775 3103 2400 3103 
Q 2144 3103 1911 2972 
Q 1678 2841 1497 2591 
Q 1319 2344 1212 1994 
Q 1106 1644 1106 1300 
Q 1106 863 1306 627 
Q 1506 391 1875 391 
Q 2147 391 2380 519 
Q 2613 647 2778 891 
Q 2956 1147 3065 1494 
Q 3175 1841 3175 2156 
z
M 1394 2969 
Q 1625 3272 1939 3428 
Q 2253 3584 2638 3584 
Q 3175 3584 3472 3232 
Q 3769 2881 3769 2247 
Q 3769 1728 3584 1258 
Q 3400 788 3053 416 
Q 2822 169 2531 39 
Q 2241 -91 1919 -91 
Q 1547 -91 1294 64 
Q 1041 219 916 525 
L 556 -1331 
L -19 -1331 
L 922 3500 
L 1497 3500 
L 1394 2969 
z
" transform="scale(0.015625)"/>
     </defs>
     <use xlink:href="#DejaVuSans-Oblique-70" transform="translate(0 0.09375)"/>
     <use xlink:href="#DejaVuSans-3d" transform="translate(82.958984 0.09375)"/>
     <use xlink:href="#DejaVuSans-31" transform="translate(186.230469 0.09375)"/>
     <use xlink:href="#DejaVuSans-2e" transform="translate(249.853516 0.09375)"/>
     <use xlink:href="#DejaVuSans-35" transform="translate(281.640625 0.09375)"/>
    </g>
    <!-- $\mathbf{v} = (0, 0)$ -->
    <g transform="translate(451.799627 221.575838) scale(0.11 -0.11)">
     <defs>
      <path id="DejaVuSans-Bold-76" d="M 97 3500 
L 1216 3500 
L 2088 1081 
L 2956 3500 
L 4078 3500 
L 2700 0 
L 1472 0 
L 97 3500 
z
" transform="scale(0.015625)"/>
      <path id="DejaVuSans-28" d="M 1984 4856 
Q 1566 4138 1362 3434 
Q 1159 2731 1159 2009 
Q 1159 1288 1364 580 
Q 1569 -128 1984 -844 
L 1484 -844 
Q 1016 -109 783 600 
Q 550 1309 550 2009 
Q 550 2706 781 3412 
Q 1013 4119 1484 4856 
L 1984 4856 
z
" transform="scale(0.015625)"/>
      <path id="DejaVuSans-30" d="M 2034 4250 
Q 1547 4250 1301 3770 
Q 1056 3291 1056 2328 
Q 1056 1369 1301 889 
Q 1547 409 2034 409 
Q 2525 409 2770 889 
Q 3016 1369 3016 2328 
Q 3016 3291 2770 3770 
Q 2525 4250 2034 4250 
z
M 2034 4750 
Q 2819 4750 3233 4129 
Q 3647 3509 3647 2328 
Q 3647 1150 3233 529 
Q 2819 -91 2034 -91 
Q 1250 -91 836 529 
Q 422 1150 422 2328 
Q 422 3509 836 4129 
Q 1250 4750 2034 4750 
z
" transform="scale(0.015625)"/>
      <path id="DejaVuSans-2c" d="M 750 794 
L 1409 794 
L 1409 256 
L 897 -744 
L 494 -744 
L 750 256 
L 750 794 
z
" transform="scale(0.015625)"/>
      <path id="DejaVuSans-29" d="M 513 4856 
L 1013 4856 
Q 1481 4119 1714 3412 
Q 1947 2706 1947 2009 
Q 1947 1309 1714 600 
Q 1481 -109 1013 -844 
L 513 -844 
Q 928 -128 1133 580 
Q 1338 1288 1338 2009 
Q 1338 2731 1133 3434 
Q 928 4138 513 4856 
z
" transform="scale(0.015625)"/>
     </defs>
     <use xlink:href="#DejaVuSans-Bold-76" transform="translate(0 0.125)"/>
     <use xlink:href="#DejaVuSans-3d" transform="translate(84.667969 0.125)"/>
     <use xlink:href="#DejaVuSans-28" transform="translate(187.939453 0.125)"/>
     <use xlink:href="#DejaVuSans-30" transform="translate(226.953125 0.125)"/>
     <use xlink:href="#DejaVuSans-2c" transform="translate(290.576172 0.125)"/>
     <use xlink:href="#DejaVuSans-30" transform="translate(341.845703 0.125)"/>
     <use xlink:href="#DejaVuSans-29" transform="translate(405.46875 0.125)"/>
    </g>
   </g>
   <g id="text_2">
    <g id="patch_8">
     <path d="M 179.267612 227.163494 
L 252.087612 227.163494 
Q 255.387612 227.163494 255.387612 223.863494 
L 255.387612 176.220088 
Q 255.387612 172.920088 252.087612 172.920088 
L 179.267612 172.920088 
Q 175.967612 172.920088 175.967612 176.220088 
L 175.967612 223.863494 
Q 175.967612 227.163494 179.267612 227.163494 
z
" style="fill: #ffffff; stroke: #000000; stroke-width: 1.5; stroke-linejoin: miter"/>
    </g>
    <!-- $\mathbf{Q}_2$ -->
    <g transform="translate(208.307612 184.578369) scale(0.11 -0.11)">
     <defs>
      <path id="DejaVuSans-32" d="M 1228 531 
L 3431 531 
L 3431 0 
L 469 0 
L 469 531 
Q 828 903 1448 1529 
Q 2069 2156 2228 2338 
Q 2531 2678 2651 2914 
Q 2772 3150 2772 3378 
Q 2772 3750 2511 3984 
Q 2250 4219 1831 4219 
Q 1534 4219 1204 4116 
Q 875 4013 500 3803 
L 500 4441 
Q 881 4594 1212 4672 
Q 1544 4750 1819 4750 
Q 2544 4750 2975 4387 
Q 3406 4025 3406 3419 
Q 3406 3131 3298 2873 
Q 3191 2616 2906 2266 
Q 2828 2175 2409 1742 
Q 1991 1309 1228 531 
z
" transform="scale(0.015625)"/>
     </defs>
     <use xlink:href="#DejaVuSans-Bold-51" transform="translate(0 0.78125)"/>
     <use xlink:href="#DejaVuSans-32" transform="translate(85.966797 -15.625) scale(0.7)"/>
    </g>
    <!-- $\rho = 0.5323$ -->
    <g transform="translate(186.142612 196.895963) scale(0.11 -0.11)">
     <defs>
      <path id="DejaVuSans-33" d="M 2597 2516 
Q 3050 2419 3304 2112 
Q 3559 1806 3559 1356 
Q 3559 666 3084 287 
Q 2609 -91 1734 -91 
Q 1441 -91 1130 -33 
Q 819 25 488 141 
L 488 750 
Q 750 597 1062 519 
Q 1375 441 1716 441 
Q 2309 441 2620 675 
Q 2931 909 2931 1356 
Q 2931 1769 2642 2001 
Q 2353 2234 1838 2234 
L 1294 2234 
L 1294 2753 
L 1863 2753 
Q 2328 2753 2575 2939 
Q 2822 3125 2822 3475 
Q 2822 3834 2567 4026 
Q 2313 4219 1838 4219 
Q 1578 4219 1281 4162 
Q 984 4106 628 3988 
L 628 4550 
Q 988 4650 1302 4700 
Q 1616 4750 1894 4750 
Q 2613 4750 3031 4423 
Q 3450 4097 3450 3541 
Q 3450 3153 3228 2886 
Q 3006 2619 2597 2516 
z
" transform="scale(0.015625)"/>
     </defs>
     <use xlink:href="#DejaVuSans-Oblique-3c1" transform="translate(0 0.78125)"/>
     <use xlink:href="#DejaVuSans-3d" transform="translate(82.958984 0.78125)"/>
     <use xlink:href="#DejaVuSans-30" transform="translate(186.230469 0.78125)"/>
     <use xlink:href="#DejaVuSans-2e" transform="translate(249.853516 0.78125)"/>
     <use xlink:href="#DejaVuSans-35" transform="translate(281.640625 0.78125)"/>
     <use xlink:href="#DejaVuSans-33" transform="translate(345.263672 0.78125)"/>
     <use xlink:href="#DejaVuSans-32" transform="translate(408.886719 0.78125)"/>
     <use xlink:href="#DejaVuSans-33" transform="translate(472.509766 0.78125)"/>
    </g>
    <!-- $p = 0.3$ -->
    <g transform="translate(196.647612 209.2359) scale(0.11 -0.11)">
     <use xlink:href="#DejaVuSans-Oblique-70" transform="translate(0 0.78125)"/>
     <use xlink:href="#DejaVuSans-3d" transform="translate(82.958984 0.78125)"/>
     <use xlink:href="#DejaVuSans-30" transform="translate(186.230469 0.78125)"/>
     <use xlink:href="#DejaVuSans-2e" transform="translate(249.853516 0.78125)"/>
     <use xlink:href="#DejaVuSans-33" transform="translate(281.640625 0.78125)"/>
    </g>
    <!-- $\mathbf{v} = (1.206, 0)$ -->
    <g transform="translate(179.267612 221.575838) scale(0.11 -0.11)">
     <defs>
      <path id="DejaVuSans-36" d="M 2113 2584 
Q 1688 2584 1439 2293 
Q 1191 2003 1191 1497 
Q 1191 994 1439 701 
Q 1688 409 2113 409 
Q 2538 409 2786 701 
Q 3034 994 3034 1497 
Q 3034 2003 2786 2293 
Q 2538 2584 2113 2584 
z
M 3366 4563 
L 3366 3988 
Q 3128 4100 2886 4159 
Q 2644 4219 2406 4219 
Q 1781 4219 1451 3797 
Q 1122 3375 1075 2522 
Q 1259 2794 1537 2939 
Q 1816 3084 2150 3084 
Q 2853 3084 3261 2657 
Q 3669 2231 3669 1497 
Q 3669 778 3244 343 
Q 2819 -91 2113 -91 
Q 1303 -91 875 529 
Q 447 1150 447 2328 
Q 447 3434 972 4092 
Q 1497 4750 2381 4750 
Q 2619 4750 2861 4703 
Q 3103 4656 3366 4563 
z
" transform="scale(0.015625)"/>
     </defs>
     <use xlink:href="#DejaVuSans-Bold-76" transform="translate(0 0.125)"/>
     <use xlink:href="#DejaVuSans-3d" transform="translate(84.667969 0.125)"/>
     <use xlink:href="#DejaVuSans-28" transform="translate(187.939453 0.125)"/>
     <use xlink:href="#DejaVuSans-31" transform="translate(226.953125 0.125)"/>
     <use xlink:href="#DejaVuSans-2e" transform="translate(290.576172 0.125)"/>
     <use xlink:href="#DejaVuSans-32" transform="translate(316.863281 0.125)"/>
     <use xlink:href="#DejaVuSans-30" transform="translate(380.486328 0.125)"/>
     <use xlink:href="#DejaVuSans-36" transform="translate(444.109375 0.125)"/>
     <use xlink:href="#DejaVuSans-2c" transform="translate(507.732422 0.125)"/>
     <use xlink:href="#DejaVuSans-30" transform="translate(559.001953 0.125)"/>
     <use xlink:href="#DejaVuSans-29" transform="translate(622.625 0.125)"/>
    </g>
   </g>
   <g id="text_3">
    <g id="patch_9">
     <path d="M 167.332612 487.760509 
L 264.022612 487.760509 
Q 267.322612 487.760509 267.322612 484.460509 
L 267.322612 436.817103 
Q 267.322612 433.517103 264.022612 433.517103 
L 167.332612 433.517103 
Q 164.032612 433.517103 164.032612 436.817103 
L 164.032612 484.460509 
Q 164.032612 487.760509 167.332612 487.760509 
z
" style="fill: #ffffff; stroke: #000000; stroke-width: 1.5; stroke-linejoin: miter"/>
    </g>
    <!-- $\mathbf{Q}_3$ -->
    <g transform="translate(208.307612 445.175384) scale(0.11 -0.11)">
     <use xlink:href="#DejaVuSans-Bold-51" transform="translate(0 0.78125)"/>
     <use xlink:href="#DejaVuSans-33" transform="translate(85.966797 -15.625) scale(0.7)"/>
    </g>
    <!-- $\rho = 0.138$ -->
    <g transform="translate(189.662612 457.492978) scale(0.11 -0.11)">
     <defs>
      <path id="DejaVuSans-38" d="M 2034 2216 
Q 1584 2216 1326 1975 
Q 1069 1734 1069 1313 
Q 1069 891 1326 650 
Q 1584 409 2034 409 
Q 2484 409 2743 651 
Q 3003 894 3003 1313 
Q 3003 1734 2745 1975 
Q 2488 2216 2034 2216 
z
M 1403 2484 
Q 997 2584 770 2862 
Q 544 3141 544 3541 
Q 544 4100 942 4425 
Q 1341 4750 2034 4750 
Q 2731 4750 3128 4425 
Q 3525 4100 3525 3541 
Q 3525 3141 3298 2862 
Q 3072 2584 2669 2484 
Q 3125 2378 3379 2068 
Q 3634 1759 3634 1313 
Q 3634 634 3220 271 
Q 2806 -91 2034 -91 
Q 1263 -91 848 271 
Q 434 634 434 1313 
Q 434 1759 690 2068 
Q 947 2378 1403 2484 
z
M 1172 3481 
Q 1172 3119 1398 2916 
Q 1625 2713 2034 2713 
Q 2441 2713 2670 2916 
Q 2900 3119 2900 3481 
Q 2900 3844 2670 4047 
Q 2441 4250 2034 4250 
Q 1625 4250 1398 4047 
Q 1172 3844 1172 3481 
z
" transform="scale(0.015625)"/>
     </defs>
     <use xlink:href="#DejaVuSans-Oblique-3c1" transform="translate(0 0.78125)"/>
     <use xlink:href="#DejaVuSans-3d" transform="translate(82.958984 0.78125)"/>
     <use xlink:href="#DejaVuSans-30" transform="translate(186.230469 0.78125)"/>
     <use xlink:href="#DejaVuSans-2e" transform="translate(249.853516 0.78125)"/>
     <use xlink:href="#DejaVuSans-31" transform="translate(281.640625 0.78125)"/>
     <use xlink:href="#DejaVuSans-33" transform="translate(345.263672 0.78125)"/>
     <use xlink:href="#DejaVuSans-38" transform="translate(408.886719 0.78125)"/>
    </g>
    <!-- $p = 0.29$ -->
    <g transform="translate(193.567612 469.832915) scale(0.11 -0.11)">
     <defs>
      <path id="DejaVuSans-39" d="M 703 97 
L 703 672 
Q 941 559 1184 500 
Q 1428 441 1663 441 
Q 2288 441 2617 861 
Q 2947 1281 2994 2138 
Q 2813 1869 2534 1725 
Q 2256 1581 1919 1581 
Q 1219 1581 811 2004 
Q 403 2428 403 3163 
Q 403 3881 828 4315 
Q 1253 4750 1959 4750 
Q 2769 4750 3195 4129 
Q 3622 3509 3622 2328 
Q 3622 1225 3098 567 
Q 2575 -91 1691 -91 
Q 1453 -91 1209 -44 
Q 966 3 703 97 
z
M 1959 2075 
Q 2384 2075 2632 2365 
Q 2881 2656 2881 3163 
Q 2881 3666 2632 3958 
Q 2384 4250 1959 4250 
Q 1534 4250 1286 3958 
Q 1038 3666 1038 3163 
Q 1038 2656 1286 2365 
Q 1534 2075 1959 2075 
z
" transform="scale(0.015625)"/>
     </defs>
     <use xlink:href="#DejaVuSans-Oblique-70" transform="translate(0 0.78125)"/>
     <use xlink:href="#DejaVuSans-3d" transform="translate(82.958984 0.78125)"/>
     <use xlink:href="#DejaVuSans-30" transform="translate(186.230469 0.78125)"/>
     <use xlink:href="#DejaVuSans-2e" transform="translate(249.853516 0.78125)"/>
     <use xlink:href="#DejaVuSans-32" transform="translate(276.140625 0.78125)"/>
     <use xlink:href="#DejaVuSans-39" transform="translate(338.013672 0.78125)"/>
    </g>
    <!-- $\mathbf{v} = (1.206, 1.206)$ -->
    <g transform="translate(167.332612 482.172853) scale(0.11 -0.11)">
     <use xlink:href="#DejaVuSans-Bold-76" transform="translate(0 0.125)"/>
     <use xlink:href="#DejaVuSans-3d" transform="translate(84.667969 0.125)"/>
     <use xlink:href="#DejaVuSans-28" transform="translate(187.939453 0.125)"/>
     <use xlink:href="#DejaVuSans-31" transform="translate(226.953125 0.125)"/>
     <use xlink:href="#DejaVuSans-2e" transform="translate(290.576172 0.125)"/>
     <use xlink:href="#DejaVuSans-32" transform="translate(316.863281 0.125)"/>
     <use xlink:href="#DejaVuSans-30" transform="translate(380.486328 0.125)"/>
     <use xlink:href="#DejaVuSans-36" transform="translate(444.109375 0.125)"/>
     <use xlink:href="#DejaVuSans-2c" transform="translate(507.732422 0.125)"/>
     <use xlink:href="#DejaVuSans-31" transform="translate(559.001953 0.125)"/>
     <use xlink:href="#DejaVuSans-2e" transform="translate(622.625 0.125)"/>
     <use xlink:href="#DejaVuSans-32" transform="translate(648.912109 0.125)"/>
     <use xlink:href="#DejaVuSans-30" transform="translate(712.535156 0.125)"/>
     <use xlink:href="#DejaVuSans-36" transform="translate(776.158203 0.125)"/>
     <use xlink:href="#DejaVuSans-29" transform="translate(839.78125 0.125)"/>
    </g>
   </g>
   <g id="text_4">
    <g id="patch_10">
     <path d="M 439.864627 487.760509 
L 512.684627 487.760509 
Q 515.984627 487.760509 515.984627 484.460509 
L 515.984627 436.817103 
Q 515.984627 433.517103 512.684627 433.517103 
L 439.864627 433.517103 
Q 436.564627 433.517103 436.564627 436.817103 
L 436.564627 484.460509 
Q 436.564627 487.760509 439.864627 487.760509 
z
" style="fill: #ffffff; stroke: #000000; stroke-width: 1.5; stroke-linejoin: miter"/>
    </g>
    <!-- $\mathbf{Q}_4$ -->
    <g transform="translate(468.904627 445.175384) scale(0.11 -0.11)">
     <defs>
      <path id="DejaVuSans-34" d="M 2419 4116 
L 825 1625 
L 2419 1625 
L 2419 4116 
z
M 2253 4666 
L 3047 4666 
L 3047 1625 
L 3713 1625 
L 3713 1100 
L 3047 1100 
L 3047 0 
L 2419 0 
L 2419 1100 
L 313 1100 
L 313 1709 
L 2253 4666 
z
" transform="scale(0.015625)"/>
     </defs>
     <use xlink:href="#DejaVuSans-Bold-51" transform="translate(0 0.78125)"/>
     <use xlink:href="#DejaVuSans-34" transform="translate(85.966797 -15.625) scale(0.7)"/>
    </g>
    <!-- $\rho = 0.5323$ -->
    <g transform="translate(446.739627 457.492978) scale(0.11 -0.11)">
     <use xlink:href="#DejaVuSans-Oblique-3c1" transform="translate(0 0.78125)"/>
     <use xlink:href="#DejaVuSans-3d" transform="translate(82.958984 0.78125)"/>
     <use xlink:href="#DejaVuSans-30" transform="translate(186.230469 0.78125)"/>
     <use xlink:href="#DejaVuSans-2e" transform="translate(249.853516 0.78125)"/>
     <use xlink:href="#DejaVuSans-35" transform="translate(281.640625 0.78125)"/>
     <use xlink:href="#DejaVuSans-33" transform="translate(345.263672 0.78125)"/>
     <use xlink:href="#DejaVuSans-32" transform="translate(408.886719 0.78125)"/>
     <use xlink:href="#DejaVuSans-33" transform="translate(472.509766 0.78125)"/>
    </g>
    <!-- $p = 0.3$ -->
    <g transform="translate(457.244627 469.832915) scale(0.11 -0.11)">
     <use xlink:href="#DejaVuSans-Oblique-70" transform="translate(0 0.78125)"/>
     <use xlink:href="#DejaVuSans-3d" transform="translate(82.958984 0.78125)"/>
     <use xlink:href="#DejaVuSans-30" transform="translate(186.230469 0.78125)"/>
     <use xlink:href="#DejaVuSans-2e" transform="translate(249.853516 0.78125)"/>
     <use xlink:href="#DejaVuSans-33" transform="translate(281.640625 0.78125)"/>
    </g>
    <!-- $\mathbf{v} = (0, 1.206)$ -->
    <g transform="translate(439.864627 482.172853) scale(0.11 -0.11)">
     <use xlink:href="#DejaVuSans-Bold-76" transform="translate(0 0.125)"/>
     <use xlink:href="#DejaVuSans-3d" transform="translate(84.667969 0.125)"/>
     <use xlink:href="#DejaVuSans-28" transform="translate(187.939453 0.125)"/>
     <use xlink:href="#DejaVuSans-30" transform="translate(226.953125 0.125)"/>
     <use xlink:href="#DejaVuSans-2c" transform="translate(290.576172 0.125)"/>
     <use xlink:href="#DejaVuSans-31" transform="translate(341.845703 0.125)"/>
     <use xlink:href="#DejaVuSans-2e" transform="translate(405.46875 0.125)"/>
     <use xlink:href="#DejaVuSans-32" transform="translate(431.755859 0.125)"/>
     <use xlink:href="#DejaVuSans-30" transform="translate(495.378906 0.125)"/>
     <use xlink:href="#DejaVuSans-36" transform="translate(559.001953 0.125)"/>
     <use xlink:href="#DejaVuSans-29" transform="translate(622.625 0.125)"/>
    </g>
   </g>
   <g id="patch_11">
    <path d="M 269.797937 200.041791 
Q 293.858417 200.041791 315.123813 200.041791 
" style="fill: none; stroke: #00008b; stroke-width: 2.5; stroke-linecap: round"/>
    <path d="M 311.123813 198.041791 
L 315.123813 200.041791 
L 311.123813 202.041791 
" style="fill: none; stroke: #00008b; stroke-width: 2.5; stroke-linecap: round"/>
   </g>
   <g id="patch_12">
    <path d="M 269.212612 407.103806 
Q 293.857372 382.459046 316.52571 359.790708 
" style="fill: none; stroke: #00008b; stroke-width: 2.5; stroke-linecap: round"/>
    <path d="M 312.283069 361.204922 
L 316.52571 359.790708 
L 315.111496 364.033349 
" style="fill: none; stroke: #00008b; stroke-width: 2.5; stroke-linecap: round"/>
   </g>
   <g id="patch_13">
    <path d="M 476.274627 406.518481 
Q 476.274627 382.458001 476.274627 361.192605 
" style="fill: none; stroke: #00008b; stroke-width: 2.5; stroke-linecap: round"/>
    <path d="M 474.274627 365.192605 
L 476.274627 361.192605 
L 478.274627 365.192605 
" style="fill: none; stroke: #00008b; stroke-width: 2.5; stroke-linecap: round"/>
   </g>
   <g id="patch_14">
    <path d="M 89.056282 622.208955 
Q 345.975996 622.208955 602.89571 622.208955 
" style="fill: none; stroke: #000000; stroke-width: 1.5; stroke-linecap: round"/>
    <path d="M 93.056282 624.208955 
L 89.056282 622.208955 
L 93.056282 620.208955 
" style="fill: none; stroke: #000000; stroke-width: 1.5; stroke-linecap: round"/>
    <path d="M 598.89571 620.208955 
L 602.89571 622.208955 
L 598.89571 624.208955 
" style="fill: none; stroke: #000000; stroke-width: 1.5; stroke-linecap: round"/>
   </g>
   <g id="text_5">
    <!-- $L = 1.0$ -->
    <g transform="translate(327.386119 637.844776) scale(0.11 -0.11)">
     <defs>
      <path id="DejaVuSans-Oblique-4c" d="M 1075 4666 
L 1709 4666 
L 909 525 
L 3181 525 
L 3078 0 
L 172 0 
L 1075 4666 
z
" transform="scale(0.015625)"/>
     </defs>
     <use xlink:href="#DejaVuSans-Oblique-4c" transform="translate(0 0.78125)"/>
     <use xlink:href="#DejaVuSans-3d" transform="translate(75.195312 0.78125)"/>
     <use xlink:href="#DejaVuSans-31" transform="translate(178.466797 0.78125)"/>
     <use xlink:href="#DejaVuSans-2e" transform="translate(242.089844 0.78125)"/>
     <use xlink:href="#DejaVuSans-30" transform="translate(273.876953 0.78125)"/>
    </g>
   </g>
   <g id="patch_15">
    <path d="M 54.107463 587.260136 
Q 54.107463 330.340422 54.107463 73.420708 
" style="fill: none; stroke: #000000; stroke-width: 1.5; stroke-linecap: round"/>
    <path d="M 56.107463 583.260136 
L 54.107463 587.260136 
L 52.107463 583.260136 
" style="fill: none; stroke: #000000; stroke-width: 1.5; stroke-linecap: round"/>
    <path d="M 52.107463 77.420708 
L 54.107463 73.420708 
L 56.107463 77.420708 
" style="fill: none; stroke: #000000; stroke-width: 1.5; stroke-linecap: round"/>
   </g>
   <g id="text_6">
    <!-- $H = 1.0$ -->
    <g transform="translate(41.506954 349.975299) rotate(-90) scale(0.11 -0.11)">
     <defs>
      <path id="DejaVuSans-Oblique-48" d="M 1081 4666 
L 1716 4666 
L 1344 2753 
L 3634 2753 
L 4006 4666 
L 4641 4666 
L 3731 0 
L 3097 0 
L 3531 2222 
L 1241 2222 
L 806 0 
L 172 0 
L 1081 4666 
z
" transform="scale(0.015625)"/>
     </defs>
     <use xlink:href="#DejaVuSans-Oblique-48" transform="translate(0 0.78125)"/>
     <use xlink:href="#DejaVuSans-3d" transform="translate(94.677734 0.78125)"/>
     <use xlink:href="#DejaVuSans-31" transform="translate(197.949219 0.78125)"/>
     <use xlink:href="#DejaVuSans-2e" transform="translate(261.572266 0.78125)"/>
     <use xlink:href="#DejaVuSans-30" transform="translate(293.359375 0.78125)"/>
    </g>
   </g>
   <g id="text_7">
    <g id="patch_16">
     <path d="M 226.504948 35.835417 
L 465.447291 35.835417 
Q 470.947291 35.835417 470.947291 30.335417 
L 470.947291 19.68948 
Q 470.947291 14.18948 465.447291 14.18948 
L 226.504948 14.18948 
Q 221.004948 14.18948 221.004948 19.68948 
L 221.004948 30.335417 
Q 221.004948 35.835417 226.504948 35.835417 
z
" style="fill: #e6e6fa; opacity: 0.8; stroke: #000000; stroke-linejoin: miter"/>
    </g>
    <!-- Boundary conditions: Neumann on all sides -->
    <g transform="translate(226.504948 28.047761) scale(0.11 -0.11)">
     <defs>
      <path id="DejaVuSans-Oblique-42" d="M 1081 4666 
L 2694 4666 
Q 3350 4666 3675 4422 
Q 4000 4178 4000 3688 
Q 4000 3238 3720 2911 
Q 3441 2584 2988 2516 
Q 3375 2428 3569 2181 
Q 3763 1934 3763 1522 
Q 3763 819 3242 409 
Q 2722 0 1819 0 
L 172 0 
L 1081 4666 
z
M 1234 2228 
L 903 519 
L 1919 519 
Q 2491 519 2800 781 
Q 3109 1044 3109 1522 
Q 3109 1891 2904 2059 
Q 2700 2228 2247 2228 
L 1234 2228 
z
M 1606 4147 
L 1331 2741 
L 2272 2741 
Q 2775 2741 3058 2959 
Q 3341 3178 3341 3566 
Q 3341 3869 3150 4008 
Q 2959 4147 2541 4147 
L 1606 4147 
z
" transform="scale(0.015625)"/>
      <path id="DejaVuSans-Oblique-6f" d="M 1625 -91 
Q 1009 -91 651 289 
Q 294 669 294 1325 
Q 294 1706 417 2101 
Q 541 2497 738 2766 
Q 1047 3184 1428 3384 
Q 1809 3584 2291 3584 
Q 2888 3584 3255 3212 
Q 3622 2841 3622 2241 
Q 3622 1825 3500 1412 
Q 3378 1000 3181 728 
Q 2875 309 2494 109 
Q 2113 -91 1625 -91 
z
M 891 1344 
Q 891 869 1089 633 
Q 1288 397 1691 397 
Q 2269 397 2648 901 
Q 3028 1406 3028 2181 
Q 3028 2634 2825 2865 
Q 2622 3097 2228 3097 
Q 1903 3097 1650 2945 
Q 1397 2794 1197 2484 
Q 1050 2253 970 1956 
Q 891 1659 891 1344 
z
" transform="scale(0.015625)"/>
      <path id="DejaVuSans-Oblique-75" d="M 428 1388 
L 838 3500 
L 1416 3500 
L 1006 1409 
Q 975 1256 961 1147 
Q 947 1038 947 966 
Q 947 700 1109 554 
Q 1272 409 1569 409 
Q 2031 409 2368 721 
Q 2706 1034 2809 1563 
L 3194 3500 
L 3769 3500 
L 3091 0 
L 2516 0 
L 2631 550 
Q 2388 244 2052 76 
Q 1716 -91 1338 -91 
Q 878 -91 622 161 
Q 366 413 366 863 
Q 366 956 381 1097 
Q 397 1238 428 1388 
z
" transform="scale(0.015625)"/>
      <path id="DejaVuSans-Oblique-6e" d="M 3566 2113 
L 3156 0 
L 2578 0 
L 2988 2091 
Q 3016 2238 3031 2350 
Q 3047 2463 3047 2528 
Q 3047 2791 2881 2937 
Q 2716 3084 2419 3084 
Q 1956 3084 1622 2776 
Q 1288 2469 1184 1941 
L 800 0 
L 225 0 
L 903 3500 
L 1478 3500 
L 1363 2950 
Q 1603 3253 1940 3418 
Q 2278 3584 2650 3584 
Q 3113 3584 3367 3334 
Q 3622 3084 3622 2631 
Q 3622 2519 3608 2391 
Q 3594 2263 3566 2113 
z
" transform="scale(0.015625)"/>
      <path id="DejaVuSans-Oblique-64" d="M 2675 525 
Q 2444 222 2128 65 
Q 1813 -91 1428 -91 
Q 903 -91 598 267 
Q 294 625 294 1247 
Q 294 1766 478 2236 
Q 663 2706 1013 3078 
Q 1244 3325 1534 3454 
Q 1825 3584 2144 3584 
Q 2481 3584 2739 3421 
Q 2997 3259 3138 2956 
L 3513 4863 
L 4091 4863 
L 3144 0 
L 2566 0 
L 2675 525 
z
M 891 1350 
Q 891 897 1095 644 
Q 1300 391 1663 391 
Q 1931 391 2161 520 
Q 2391 650 2566 903 
Q 2750 1166 2856 1509 
Q 2963 1853 2963 2188 
Q 2963 2622 2758 2865 
Q 2553 3109 2194 3109 
Q 1922 3109 1687 2981 
Q 1453 2853 1288 2613 
Q 1106 2353 998 2009 
Q 891 1666 891 1350 
z
" transform="scale(0.015625)"/>
      <path id="DejaVuSans-Oblique-61" d="M 3438 1997 
L 3047 0 
L 2472 0 
L 2578 531 
Q 2325 219 2001 64 
Q 1678 -91 1281 -91 
Q 834 -91 548 182 
Q 263 456 263 884 
Q 263 1497 752 1853 
Q 1241 2209 2100 2209 
L 2900 2209 
L 2931 2363 
Q 2938 2388 2941 2417 
Q 2944 2447 2944 2509 
Q 2944 2788 2717 2942 
Q 2491 3097 2081 3097 
Q 1800 3097 1504 3025 
Q 1209 2953 897 2809 
L 997 3341 
Q 1322 3463 1633 3523 
Q 1944 3584 2234 3584 
Q 2853 3584 3176 3315 
Q 3500 3047 3500 2534 
Q 3500 2431 3484 2292 
Q 3469 2153 3438 1997 
z
M 2816 1759 
L 2241 1759 
Q 1534 1759 1195 1570 
Q 856 1381 856 984 
Q 856 709 1029 553 
Q 1203 397 1509 397 
Q 1978 397 2328 733 
Q 2678 1069 2791 1631 
L 2816 1759 
z
" transform="scale(0.015625)"/>
      <path id="DejaVuSans-Oblique-72" d="M 2853 2969 
Q 2766 3016 2653 3041 
Q 2541 3066 2413 3066 
Q 1953 3066 1609 2717 
Q 1266 2369 1153 1784 
L 800 0 
L 225 0 
L 909 3500 
L 1484 3500 
L 1375 2956 
Q 1603 3259 1920 3421 
Q 2238 3584 2597 3584 
Q 2691 3584 2781 3573 
Q 2872 3563 2963 3538 
L 2853 2969 
z
" transform="scale(0.015625)"/>
      <path id="DejaVuSans-Oblique-79" d="M 1588 -325 
Q 1188 -997 936 -1164 
Q 684 -1331 294 -1331 
L -159 -1331 
L -63 -850 
L 269 -850 
Q 509 -850 678 -719 
Q 847 -588 1056 -206 
L 1234 128 
L 459 3500 
L 1069 3500 
L 1650 819 
L 3256 3500 
L 3859 3500 
L 1588 -325 
z
" transform="scale(0.015625)"/>
      <path id="DejaVuSans-Oblique-20" transform="scale(0.015625)"/>
      <path id="DejaVuSans-Oblique-63" d="M 3431 3366 
L 3316 2797 
Q 3109 2947 2876 3022 
Q 2644 3097 2394 3097 
Q 2119 3097 1870 3000 
Q 1622 2903 1453 2725 
Q 1184 2453 1037 2087 
Q 891 1722 891 1331 
Q 891 859 1127 628 
Q 1363 397 1844 397 
Q 2081 397 2348 469 
Q 2616 541 2906 684 
L 2797 116 
Q 2547 13 2283 -39 
Q 2019 -91 1741 -91 
Q 1044 -91 669 257 
Q 294 606 294 1253 
Q 294 1797 489 2255 
Q 684 2713 1069 3078 
Q 1331 3328 1684 3456 
Q 2038 3584 2456 3584 
Q 2700 3584 2940 3529 
Q 3181 3475 3431 3366 
z
" transform="scale(0.015625)"/>
      <path id="DejaVuSans-Oblique-69" d="M 1172 4863 
L 1747 4863 
L 1606 4134 
L 1031 4134 
L 1172 4863 
z
M 909 3500 
L 1484 3500 
L 800 0 
L 225 0 
L 909 3500 
z
" transform="scale(0.015625)"/>
      <path id="DejaVuSans-Oblique-74" d="M 2706 3500 
L 2619 3053 
L 1472 3053 
L 1100 1153 
Q 1081 1047 1072 975 
Q 1063 903 1063 863 
Q 1063 663 1183 572 
Q 1303 481 1569 481 
L 2150 481 
L 2053 0 
L 1503 0 
Q 991 0 739 200 
Q 488 400 488 806 
Q 488 878 497 964 
Q 506 1050 525 1153 
L 897 3053 
L 409 3053 
L 500 3500 
L 978 3500 
L 1172 4494 
L 1747 4494 
L 1556 3500 
L 2706 3500 
z
" transform="scale(0.015625)"/>
      <path id="DejaVuSans-Oblique-73" d="M 3200 3397 
L 3091 2853 
Q 2863 2978 2609 3040 
Q 2356 3103 2088 3103 
Q 1634 3103 1373 2948 
Q 1113 2794 1113 2528 
Q 1113 2219 1719 2053 
Q 1766 2041 1788 2034 
L 1972 1978 
Q 2547 1819 2739 1644 
Q 2931 1469 2931 1166 
Q 2931 609 2489 259 
Q 2047 -91 1331 -91 
Q 1053 -91 747 -37 
Q 441 16 72 128 
L 184 722 
Q 500 559 806 475 
Q 1113 391 1394 391 
Q 1816 391 2080 572 
Q 2344 753 2344 1031 
Q 2344 1331 1650 1516 
L 1591 1531 
L 1394 1581 
Q 956 1697 753 1886 
Q 550 2075 550 2369 
Q 550 2928 970 3256 
Q 1391 3584 2113 3584 
Q 2397 3584 2667 3537 
Q 2938 3491 3200 3397 
z
" transform="scale(0.015625)"/>
      <path id="DejaVuSans-Oblique-3a" d="M 978 3309 
L 1638 3309 
L 1484 2516 
L 825 2516 
L 978 3309 
z
M 488 794 
L 1147 794 
L 991 0 
L 331 0 
L 488 794 
z
" transform="scale(0.015625)"/>
      <path id="DejaVuSans-Oblique-4e" d="M 1081 4666 
L 1931 4666 
L 3219 666 
L 4000 4666 
L 4616 4666 
L 3706 0 
L 2853 0 
L 1569 4025 
L 788 0 
L 172 0 
L 1081 4666 
z
" transform="scale(0.015625)"/>
      <path id="DejaVuSans-Oblique-65" d="M 3078 2063 
Q 3088 2113 3092 2166 
Q 3097 2219 3097 2272 
Q 3097 2653 2873 2875 
Q 2650 3097 2266 3097 
Q 1838 3097 1509 2826 
Q 1181 2556 1013 2059 
L 3078 2063 
z
M 3578 1613 
L 903 1613 
Q 884 1494 878 1425 
Q 872 1356 872 1306 
Q 872 872 1139 634 
Q 1406 397 1894 397 
Q 2269 397 2603 481 
Q 2938 566 3225 728 
L 3116 159 
Q 2806 34 2476 -28 
Q 2147 -91 1806 -91 
Q 1078 -91 686 257 
Q 294 606 294 1247 
Q 294 1794 489 2264 
Q 684 2734 1063 3103 
Q 1306 3334 1642 3459 
Q 1978 3584 2356 3584 
Q 2950 3584 3301 3228 
Q 3653 2872 3653 2272 
Q 3653 2128 3634 1964 
Q 3616 1800 3578 1613 
z
" transform="scale(0.015625)"/>
      <path id="DejaVuSans-Oblique-6d" d="M 5747 2113 
L 5338 0 
L 4763 0 
L 5166 2094 
Q 5191 2228 5203 2325 
Q 5216 2422 5216 2491 
Q 5216 2772 5059 2928 
Q 4903 3084 4622 3084 
Q 4203 3084 3875 2770 
Q 3547 2456 3450 1953 
L 3066 0 
L 2491 0 
L 2900 2094 
Q 2925 2209 2937 2307 
Q 2950 2406 2950 2484 
Q 2950 2769 2794 2926 
Q 2638 3084 2363 3084 
Q 1938 3084 1609 2770 
Q 1281 2456 1184 1953 
L 800 0 
L 225 0 
L 909 3500 
L 1484 3500 
L 1375 2956 
Q 1609 3263 1923 3423 
Q 2238 3584 2597 3584 
Q 2978 3584 3223 3384 
Q 3469 3184 3519 2828 
Q 3781 3197 4126 3390 
Q 4472 3584 4856 3584 
Q 5306 3584 5551 3325 
Q 5797 3066 5797 2591 
Q 5797 2488 5784 2364 
Q 5772 2241 5747 2113 
z
" transform="scale(0.015625)"/>
      <path id="DejaVuSans-Oblique-6c" d="M 1172 4863 
L 1747 4863 
L 800 0 
L 225 0 
L 1172 4863 
z
" transform="scale(0.015625)"/>
     </defs>
     <use xlink:href="#DejaVuSans-Oblique-42"/>
     <use xlink:href="#DejaVuSans-Oblique-6f" transform="translate(68.603516 0)"/>
     <use xlink:href="#DejaVuSans-Oblique-75" transform="translate(129.785156 0)"/>
     <use xlink:href="#DejaVuSans-Oblique-6e" transform="translate(193.164062 0)"/>
     <use xlink:href="#DejaVuSans-Oblique-64" transform="translate(256.542969 0)"/>
     <use xlink:href="#DejaVuSans-Oblique-61" transform="translate(320.019531 0)"/>
     <use xlink:href="#DejaVuSans-Oblique-72" transform="translate(381.298828 0)"/>
     <use xlink:href="#DejaVuSans-Oblique-79" transform="translate(422.412109 0)"/>
     <use xlink:href="#DejaVuSans-Oblique-20" transform="translate(481.591797 0)"/>
     <use xlink:href="#DejaVuSans-Oblique-63" transform="translate(513.378906 0)"/>
     <use xlink:href="#DejaVuSans-Oblique-6f" transform="translate(568.359375 0)"/>
     <use xlink:href="#DejaVuSans-Oblique-6e" transform="translate(629.541016 0)"/>
     <use xlink:href="#DejaVuSans-Oblique-64" transform="translate(692.919922 0)"/>
     <use xlink:href="#DejaVuSans-Oblique-69" transform="translate(756.396484 0)"/>
     <use xlink:href="#DejaVuSans-Oblique-74" transform="translate(784.179688 0)"/>
     <use xlink:href="#DejaVuSans-Oblique-69" transform="translate(823.388672 0)"/>
     <use xlink:href="#DejaVuSans-Oblique-6f" transform="translate(851.171875 0)"/>
     <use xlink:href="#DejaVuSans-Oblique-6e" transform="translate(912.353516 0)"/>
     <use xlink:href="#DejaVuSans-Oblique-73" transform="translate(975.732422 0)"/>
     <use xlink:href="#DejaVuSans-Oblique-3a" transform="translate(1027.832031 0)"/>
     <use xlink:href="#DejaVuSans-Oblique-20" transform="translate(1061.523438 0)"/>
     <use xlink:href="#DejaVuSans-Oblique-4e" transform="translate(1093.310547 0)"/>
     <use xlink:href="#DejaVuSans-Oblique-65" transform="translate(1168.115234 0)"/>
     <use xlink:href="#DejaVuSans-Oblique-75" transform="translate(1229.638672 0)"/>
     <use xlink:href="#DejaVuSans-Oblique-6d" transform="translate(1293.017578 0)"/>
     <use xlink:href="#DejaVuSans-Oblique-61" transform="translate(1390.429688 0)"/>
     <use xlink:href="#DejaVuSans-Oblique-6e" transform="translate(1451.708984 0)"/>
     <use xlink:href="#DejaVuSans-Oblique-6e" transform="translate(1515.087891 0)"/>
     <use xlink:href="#DejaVuSans-Oblique-20" transform="translate(1578.466797 0)"/>
     <use xlink:href="#DejaVuSans-Oblique-6f" transform="translate(1610.253906 0)"/>
     <use xlink:href="#DejaVuSans-Oblique-6e" transform="translate(1671.435547 0)"/>
     <use xlink:href="#DejaVuSans-Oblique-20" transform="translate(1734.814453 0)"/>
     <use xlink:href="#DejaVuSans-Oblique-61" transform="translate(1766.601562 0)"/>
     <use xlink:href="#DejaVuSans-Oblique-6c" transform="translate(1827.880859 0)"/>
     <use xlink:href="#DejaVuSans-Oblique-6c" transform="translate(1855.664062 0)"/>
     <use xlink:href="#DejaVuSans-Oblique-20" transform="translate(1883.447266 0)"/>
     <use xlink:href="#DejaVuSans-Oblique-73" transform="translate(1915.234375 0)"/>
     <use xlink:href="#DejaVuSans-Oblique-69" transform="translate(1967.333984 0)"/>
     <use xlink:href="#DejaVuSans-Oblique-64" transform="translate(1995.117188 0)"/>
     <use xlink:href="#DejaVuSans-Oblique-65" transform="translate(2058.59375 0)"/>
     <use xlink:href="#DejaVuSans-Oblique-73" transform="translate(2120.117188 0)"/>
    </g>
   </g>
  </g>
 </g>
 <defs>
  <clipPath id="pae4098b488">
   <rect x="7.2" y="7.2" width="625.432836" height="698.4"/>
  </clipPath>
 </defs>
</svg>
